<svg width="137" height="137" viewBox="0 0 137 137" fill="none" xmlns="http://www.w3.org/2000/svg">
<g opacity="0.5">
<path d="M73.373 41.6252C70.8738 41.6608 68.2785 42.913 66.5403 44.6386C63.6189 47.5381 62.0009 52.8217 65.2683 56.1131C68.5377 59.4077 73.8308 57.8262 76.7522 54.9278C79.6736 52.0284 81.2895 46.7437 78.0242 43.4533C76.7146 42.1332 75.0662 41.6001 73.373 41.6252ZM75.8115 48.6533C75.5847 49.9609 74.7014 51.3072 73.9238 52.0785C72.6277 53.3652 69.7471 54.9289 68.1165 53.2847C66.4901 51.6458 68.0778 48.7673 69.3677 47.4869C70.669 46.196 73.5423 44.6355 75.1749 46.2807C75.824 46.935 75.962 47.7848 75.8115 48.6533Z" fill="#FBCE45"/>
<path d="M59.0271 51.4011C62.5443 47.9111 63.115 42.7634 60.3002 39.9266C57.0307 36.6331 51.7377 38.2135 48.8163 41.1129C45.8969 44.0103 44.2821 49.3002 47.5432 52.5864C50.8126 55.881 56.1057 54.3006 59.0271 51.4011ZM49.757 47.3874C49.9848 46.0788 50.867 44.7326 51.6426 43.9622C52.946 42.6682 55.8172 41.1077 57.4509 42.7539C58.6863 43.9988 58.1136 46.6537 56.1997 48.5529C54.8995 49.8437 52.0241 51.4032 50.3925 49.7591C49.7434 49.1058 49.6064 48.255 49.757 47.3874Z" fill="#FBCE45"/>
<path d="M91.405 56.9356C88.1356 53.641 82.8425 55.2225 79.9211 58.1219C76.4039 61.612 75.8332 66.7597 78.6491 69.5965C81.9165 72.89 87.2126 71.3085 90.1319 68.4101C93.0544 65.5107 94.6714 60.227 91.405 56.9356ZM89.1547 62.1304C88.9811 63.3167 88.307 64.5668 87.3056 65.5619C86.0106 66.8465 83.1268 68.4101 81.4973 66.7681C80.2629 65.5242 80.8357 62.8694 82.7485 60.9702C84.655 59.0783 89.7964 57.7383 89.1547 62.1304Z" fill="#FBCE45"/>
<path d="M82.8311 88.1586C86.0995 91.4532 91.3936 89.8728 94.315 86.9734C97.2365 84.0739 98.8534 78.7903 95.5871 75.4989C92.3197 72.2054 87.0256 73.7847 84.1032 76.6841C80.587 80.1752 80.0153 85.3219 82.8311 88.1586ZM86.9305 79.5334C88.2005 78.2729 91.0968 76.6716 92.7388 78.3272C94.3663 79.9672 92.7796 82.8416 91.4877 84.1241C90.1885 85.4128 87.311 86.9754 85.6794 85.3313C84.445 84.0875 85.0177 81.4316 86.9305 79.5334Z" fill="#FBCE45"/>
<path d="M35.6131 67.7589C33.647 75.549 38.9369 79.0369 43.6028 82.1151C47.698 84.816 50.5609 87.7008 53.2304 91.8159C56.5992 97.0086 60.7644 101.567 67.526 99.9143C72.5953 98.6757 76.4553 94.9829 77.8497 90.0359C78.9597 86.0974 78.251 82.2416 75.9996 79.9735C74.2342 78.1945 74.205 76.5995 74.1652 74.3899C74.1172 71.7433 74.0565 68.4477 70.5927 64.9577C67.1277 61.4667 63.8342 61.382 61.1867 61.313C58.9791 61.2566 57.3831 61.2148 55.6177 59.4358C54.076 57.8826 51.7556 57.0276 49.0829 57.0276C43.8997 57.0276 37.4736 60.3859 35.6131 67.7589ZM49.0829 61.0413C50.655 61.0413 51.9981 61.4865 52.7684 62.2631C55.6689 65.1856 58.6708 65.2629 61.0832 65.3256C63.5029 65.3873 65.4146 65.4375 67.7434 67.784C70.0732 70.1316 70.1087 72.0433 70.1526 74.463C70.1965 76.8754 70.2509 79.8783 73.1514 82.8008C74.3482 84.0059 74.6837 86.4758 73.9876 88.9467C72.9904 92.4817 70.2185 95.1251 66.5727 96.0156C61.5546 97.2417 59.0189 93.3628 56.5981 89.6314C53.6276 85.0522 50.3686 81.7692 45.8135 78.7641C40.835 75.4811 38.2931 73.5432 39.5055 68.7415C40.8403 63.4505 45.4058 61.0413 49.0829 61.0413Z" fill="#FBCE45"/>
<path d="M117.82 88.0929C118.665 88.7649 119.953 88.6343 120.64 87.7709C131.417 74.2091 137.074 60.1111 136.999 46.9997C136.933 35.3726 132.378 25.0531 124.175 17.9414C116.755 11.5101 107.158 8.41412 97.1507 9.22417C86.8478 10.0583 76.9809 14.9207 68.4978 23.3201C60.4799 15.3847 51.1659 10.5798 41.4474 9.38723C31.9964 8.22807 22.6667 10.6007 15.1756 16.0683C7.42102 21.7293 2.23774 30.2751 0.582097 40.1336C-1.25332 51.0657 1.2709 63.1799 7.88301 75.1665C12.5353 83.6005 19.1945 91.9842 27.6786 100.086C38.9242 110.824 51.8056 119.759 65.2346 127.54C67.2498 128.708 69.749 128.705 71.7642 127.539C89.8236 117.058 104.472 105.772 115.305 93.9932C116.056 93.1779 116.002 91.9079 115.187 91.1575C114.372 90.408 113.102 90.4603 112.351 91.2766C101.793 102.757 87.4583 113.79 69.7521 124.066C68.9671 124.521 68.0296 124.521 67.2467 124.067C66.8819 123.856 66.513 123.641 66.1419 123.424C77.6101 112.318 100.44 90.0516 101.228 89.2604C106.817 83.7144 107.446 75.2543 102.63 70.3993C101.482 69.2432 100.094 68.3663 98.5533 67.806C99.3017 66.8078 99.9289 65.725 100.424 64.5805C101.226 62.7179 101.627 60.7643 101.618 58.8662C101.603 55.8277 100.539 52.9262 98.3809 50.75C95.7553 48.1066 91.9621 47.0029 88.0739 47.5966C88.2631 46.4144 88.3007 45.204 88.1648 44.0135C87.5053 38.223 82.6899 34.0389 76.9046 33.9689C73.6926 33.9302 70.5172 35.0664 67.9439 36.9656C64.9033 28.4031 54.3172 27.9515 47.9194 32.8933C47.4281 33.2738 32.8336 47.837 25.1617 55.603C24.3819 56.3922 24.3903 57.6621 25.1784 58.4418C25.9665 59.2195 27.2375 59.2122 28.0162 58.4241C35.1091 51.2622 42.1487 44.0417 49.3378 36.9771C52.4264 33.9417 57.7226 32.1795 61.6077 34.9138C63.5623 36.2893 64.5981 38.6045 64.619 40.9636C64.6347 42.7927 66.9927 43.6352 68.1655 42.2345C71.4078 38.3578 78.1045 36.0332 82.1496 40.0939C84.6748 42.6349 84.678 46.6308 83.2638 49.7247C82.5206 51.3521 84.2714 53.1237 85.9092 52.39C89.4599 50.8002 93.2363 51.2664 95.5316 53.5774C98.2795 56.3472 98.268 60.9922 95.7877 64.7686C95.102 65.8117 94.2522 66.7504 93.2875 67.5437C91.8775 68.7028 92.7095 71.0713 94.5292 71.1016C97.8489 71.1549 100.793 73.2496 101.62 76.5201C102.351 79.4102 101.47 82.8814 99.1073 85.6491C92.4816 93.4141 84.5964 99.952 77.2819 107.036C72.4561 111.86 67.4777 116.543 62.5756 121.29C49.9806 113.624 39.1782 105.518 30.4505 97.1842C22.7012 89.784 16.5448 82.1685 12.1319 74.5279C12.8395 73.8088 19.6836 66.8664 22.3772 64.1362C23.1559 63.3471 23.1475 62.0771 22.3584 61.2985C21.5786 60.5292 20.2888 60.5386 19.5206 61.3173C16.3368 64.5428 10.1773 70.7923 10.1355 70.8351C4.90934 60.4497 2.97671 50.1145 4.54037 40.7994C6.02146 31.9809 10.6393 24.3497 17.542 19.3117C24.2074 14.4461 32.5232 12.3369 40.9582 13.3716C50.3328 14.5214 59.3521 19.4319 67.0397 27.5711C67.4192 27.9724 67.947 28.2003 68.4989 28.2003C69.0508 28.2003 69.5786 27.9724 69.958 27.5711C78.0658 18.9876 87.5806 14.027 97.4747 13.2263C106.4 12.5031 114.948 15.2551 121.546 20.9757C135.412 32.9958 139.539 57.5398 117.497 85.2739C116.807 86.1414 116.952 87.403 117.82 88.0929Z" fill="#FBCE45"/>
</g>
</svg>
