<svg width="13" height="19" viewBox="0 0 13 19" fill="none" xmlns="http://www.w3.org/2000/svg">
<path d="M6.5 0C2.91588 0 0 2.92486 0 6.51999C0 10.9816 5.81686 17.5316 6.06452 17.8083C6.29714 18.0682 6.70328 18.0677 6.93548 17.8083C7.18314 17.5316 13 10.9816 13 6.51999C12.9999 2.92486 10.0841 0 6.5 0ZM6.5 9.80037C4.69674 9.80037 3.22972 8.3288 3.22972 6.51999C3.22972 4.71117 4.69678 3.23963 6.5 3.23963C8.30322 3.23963 9.77024 4.71121 9.77024 6.52002C9.77024 8.32884 8.30322 9.80037 6.5 9.80037Z" fill="#64605B"/>
</svg>
