<svg width="20" height="20" viewBox="0 0 20 20" xmlns="http://www.w3.org/2000/svg">

<g clip-path="url(#clip0_1_53)">
<path d="M14.5557 0H5.4025C2.42351 0 0 2.42351 0 5.4025V14.5558C0 17.5347 2.42351 19.9582 5.4025 19.9582H14.5558C17.5347 19.9582 19.9582 17.5347 19.9582 14.5558V5.4025C19.9582 2.42351 17.5347 0 14.5557 0V0ZM18.7882 14.5558C18.7882 16.8895 16.8895 18.7882 14.5557 18.7882H5.4025C3.06868 18.7882 1.17003 16.8895 1.17003 14.5558V5.4025C1.17003 3.06868 3.06868 1.17003 5.4025 1.17003H14.5558C16.8895 1.17003 18.7882 3.06868 18.7882 5.4025V14.5558Z" />
<path d="M9.97914 4.52197C6.97 4.52197 4.52197 6.97 4.52197 9.97914C4.52197 12.9883 6.97 15.4363 9.97914 15.4363C12.9883 15.4363 15.4363 12.9883 15.4363 9.97914C15.4363 6.97 12.9883 4.52197 9.97914 4.52197ZM9.97914 14.2663C7.61532 14.2663 5.69201 12.3431 5.69201 9.97914C5.69201 7.61532 7.61532 5.69201 9.97914 5.69201C12.3431 5.69201 14.2663 7.61532 14.2663 9.97914C14.2663 12.3431 12.3431 14.2663 9.97914 14.2663Z" />
<path d="M15.5669 2.58374C14.6776 2.58374 13.9543 3.30717 13.9543 4.19627C13.9543 5.08552 14.6776 5.80895 15.5669 5.80895C16.4561 5.80895 17.1796 5.08552 17.1796 4.19627C17.1796 3.30702 16.4561 2.58374 15.5669 2.58374ZM15.5669 4.63876C15.3229 4.63876 15.1244 4.4402 15.1244 4.19627C15.1244 3.95218 15.3229 3.75378 15.5669 3.75378C15.811 3.75378 16.0095 3.95218 16.0095 4.19627C16.0095 4.4402 15.811 4.63876 15.5669 4.63876Z" />
</g>
<defs>
<clipPath id="clip0_1_53">
<rect width="19.9582" height="19.9582"/>
</clipPath>
</defs>
</svg>
