<svg width="20" height="20" viewBox="0 0 20 20"  xmlns="http://www.w3.org/2000/svg">
<g clip-path="url(#clip0_1_48)">
<path d="M19.65 1.98255C19.4062 1.68441 19.0411 1.52026 18.6218 1.52026C18.3938 1.52026 18.1523 1.56823 17.9041 1.66309L1.00988 8.11214C0.113319 8.45429 -0.00742984 8.96774 0.000335862 9.24335C0.00810157 9.51895 0.157782 10.0248 1.07231 10.3158C1.07779 10.3175 1.08327 10.3191 1.08875 10.3206L4.59307 11.3235L6.48821 16.7427C6.74661 17.4816 7.3266 17.9405 8.00207 17.9405C8.42797 17.9405 8.84686 17.762 9.21352 17.4246L11.3811 15.4288L14.525 17.9603C14.5253 17.9606 14.5257 17.9607 14.526 17.961L14.5559 17.9851C14.5586 17.9872 14.5615 17.9895 14.5643 17.9917C14.9137 18.2627 15.2951 18.4058 15.6677 18.406H15.6679C16.3959 18.406 16.9756 17.8671 17.1444 17.0333L19.9125 3.365C20.0237 2.81638 19.9305 2.32546 19.65 1.98255ZM5.76539 11.133L12.5263 7.67909L8.3165 12.1523C8.24753 12.2255 8.19865 12.3152 8.17459 12.4128L7.36284 15.7009L5.76539 11.133ZM8.42127 16.5643C8.39325 16.59 8.36508 16.613 8.33691 16.6342L9.09003 13.5839L10.46 14.6871L8.42127 16.5643ZM18.7664 3.13279L15.9983 16.8012C15.9717 16.932 15.8866 17.2364 15.6677 17.2364C15.5596 17.2364 15.4238 17.1775 15.2848 17.0704L11.7223 14.202C11.7218 14.2015 11.7212 14.2011 11.7206 14.2008L9.60089 12.4938L15.6888 6.02499C15.8837 5.8179 15.9013 5.50073 15.7306 5.27324C15.5598 5.04575 15.2502 4.97418 14.997 5.10361L4.9841 10.2189L1.43212 9.20269L18.3212 2.75562C18.4639 2.70111 18.5634 2.68969 18.6218 2.68969C18.6575 2.68969 18.7212 2.69395 18.7448 2.72304C18.7759 2.76095 18.8154 2.89023 18.7664 3.13279Z" />
</g>
<defs>
<clipPath id="clip0_1_48">
<rect width="19.9582" height="19.9582" />
</clipPath>
</defs>
</svg>
