<svg width="22" height="22" viewBox="0 0 22 22"  xmlns="http://www.w3.org/2000/svg">
<g clip-path="url(#clip0_1_46)">
<path d="M11.0376 17.7218C14.193 17.7218 13.0679 15.7243 13.3114 15.1499C13.3078 14.7209 13.3042 14.3083 13.3187 14.0575C13.5186 14.1138 13.9903 14.3529 14.9646 15.2998C16.4687 16.8176 16.8531 17.7218 18.0682 17.7218H20.3048C21.0136 17.7218 21.3826 17.4283 21.5671 17.182C21.7452 16.9439 21.9197 16.5258 21.7289 15.8751C21.2299 14.3083 18.3199 11.6028 18.1391 11.3174C18.1663 11.2647 18.2099 11.1947 18.2327 11.1584H18.2309C18.8052 10.3995 20.9973 7.11505 21.3199 5.8009C21.3208 5.79908 21.3217 5.79636 21.3217 5.79363C21.4962 5.19381 21.3363 4.80484 21.1709 4.5849C20.9219 4.25591 20.5256 4.0896 19.9903 4.0896H17.7537C17.0049 4.0896 16.4368 4.46676 16.1497 5.15473C15.6689 6.37709 14.3184 8.89088 13.306 9.78061C13.2751 8.52008 13.296 7.55764 13.3123 6.8424C13.3451 5.44737 13.4505 4.0896 12.0027 4.0896H8.48743C7.58044 4.0896 6.71252 5.08021 7.65223 6.25622C8.4738 7.28682 7.9476 7.86119 8.12482 10.7203C7.43412 9.97964 6.2054 7.97933 5.33657 5.42283C5.09301 4.73122 4.72403 4.09051 3.68525 4.09051H1.44865C0.541654 4.09051 0 4.5849 0 5.41284C0 7.27227 4.11603 17.7218 11.0376 17.7218ZM3.68525 5.45373C3.88246 5.45373 3.90246 5.45373 4.04878 5.86906C4.93851 8.48918 6.93427 12.3662 8.39201 12.3662C9.48713 12.3662 9.48713 11.2438 9.48713 10.8212L9.48622 7.45676C9.42624 6.34346 9.02091 5.78909 8.75463 5.45282L11.9428 5.45646C11.9446 5.47191 11.9246 9.17806 11.9518 10.076C11.9518 11.351 12.9643 12.0817 14.5447 10.4822C16.2124 8.60006 17.3657 5.78636 17.412 5.67185C17.4802 5.50826 17.5392 5.45282 17.7537 5.45282H19.9903H19.9994C19.9985 5.45555 19.9985 5.45828 19.9976 5.461C19.7931 6.41526 17.7746 9.45616 17.0994 10.4004C17.0885 10.415 17.0785 10.4304 17.0685 10.4459C16.7713 10.9312 16.5295 11.4674 17.1094 12.2217H17.1103C17.163 12.2853 17.3002 12.4344 17.5002 12.6416C18.1218 13.2832 20.2539 15.4771 20.4429 16.3495C20.3175 16.3695 20.1812 16.355 18.0682 16.3595C17.6183 16.3595 17.2666 15.687 15.9243 14.3329C14.7174 13.1587 13.934 12.6788 13.2205 12.6788C11.8355 12.6788 11.9364 13.803 11.9491 15.1626C11.9537 16.6367 11.9446 16.1705 11.9546 16.2632C11.8737 16.295 11.6419 16.3586 11.0376 16.3586C5.27113 16.3586 1.51591 7.20593 1.3714 5.45646C1.42139 5.45192 2.10936 5.45464 3.68525 5.45373Z" />
</g>
<defs>
<clipPath id="clip0_1_46">
<rect width="21.8116" height="21.8116" />
</clipPath>
</defs>
</svg>
