<svg width="20" height="20" viewBox="0 0 20 20"  xmlns="http://www.w3.org/2000/svg">
<g clip-path="url(#clip0_1_50)">
<path d="M4.82708 18.534C6.36911 19.462 8.13223 19.951 9.94377 19.951C15.4332 19.951 19.9582 15.4716 19.9582 9.97544C19.9582 4.48569 15.4396 0 9.94377 0C4.46468 0 0.00715665 4.47503 0.00715665 9.97544C0.00715665 11.8112 0.496397 13.5877 1.42417 15.131L0 19.9582L4.82708 18.534ZM1.17628 9.97544C1.17628 5.11959 5.10939 1.16897 9.94377 1.16897C14.8211 1.16897 18.7892 5.11959 18.7892 9.97544C18.7892 14.8315 14.8211 18.7819 9.94377 18.7819C8.26546 18.7819 6.63451 18.3065 5.2277 17.4069L5.00295 17.2633L1.72901 18.2293L2.69486 14.9552L2.55127 14.7307C1.65166 13.3235 1.17628 11.6793 1.17628 9.97544Z" />
<path d="M4.85817 8.1373C5.05124 9.15126 5.62438 11.1015 7.2931 12.7702C8.96182 14.439 10.9121 15.0122 11.9262 15.2053C13.0874 15.4264 14.7914 15.4598 15.6242 14.627L16.0885 14.1627C16.3228 13.9284 16.4519 13.6167 16.4519 13.2852C16.4519 12.9537 16.3228 12.6422 16.0885 12.4078L14.2318 10.5512C13.9974 10.3167 13.6858 10.1878 13.3543 10.1878C13.0228 10.1878 12.7113 10.3167 12.4768 10.5512L12.0127 11.0153C11.7292 11.2989 11.1939 11.3001 10.9083 11.0188L9.05638 9.08929C9.05363 9.0864 9.05089 9.0835 9.048 9.08076C8.76402 8.79678 8.76402 8.33464 9.048 8.05066L9.51212 7.58655C9.99725 7.10142 9.99725 6.31647 9.51212 5.8315L7.6555 3.97488C7.17174 3.49112 6.38451 3.49112 5.9006 3.97488L5.43648 4.43915V4.439C4.77183 5.1038 4.55028 6.52082 4.85817 8.1373ZM6.26315 5.26582C6.75041 4.78967 6.72438 4.78053 6.77813 4.78053C6.79655 4.78053 6.81498 4.78754 6.82898 4.80155C8.78534 6.76841 8.70677 6.65283 8.70677 6.70917C8.70677 6.72882 8.69961 6.74602 8.68575 6.76003L8.22148 7.22415C7.48222 7.96341 7.47933 9.16009 8.21676 9.90271L10.0697 11.8335C10.0726 11.8362 10.0754 11.8391 10.0783 11.842C10.8174 12.5811 12.0978 12.5836 12.8393 11.842L13.3035 11.3779C13.3315 11.3499 13.3772 11.3499 13.4052 11.3779C15.3615 13.3446 15.283 13.229 15.283 13.2854C15.283 13.3052 15.2758 13.3222 15.2619 13.3362L14.7977 13.8003C14.4796 14.1184 13.4664 14.3088 12.1448 14.0571C11.2629 13.889 9.56709 13.391 8.11977 11.9437C6.67245 10.4964 6.17453 8.80059 6.00658 7.91865C5.75473 6.5971 5.94506 5.58375 6.26315 5.26582Z" />
</g>
<defs>
<clipPath id="clip0_1_50">
<rect width="19.9582" height="19.9582" />
</clipPath>
</defs>
</svg>
