<?xml version="1.0" encoding="utf-8"?><svg viewBox="0 0 137 137" xmlns="http://www.w3.org/2000/svg" xmlns:xlink="http://www.w3.org/1999/xlink"><style>:root>svg{display:none}:root>svg:target{display:block}</style><svg fill="none" viewBox="0 0 124 124" id="advantage--paw" xmlns="http://www.w3.org/2000/svg"><g filter="url(#afilter0_d_1_352)"><circle cx="62" cy="50" r="30" fill="#fff"/></g><g filter="url(#afilter1_d_1_352)"><circle cx="61.936" cy="49.936" r="16.887" fill="#FBCE45"/></g><g clip-path="url(#aclip0_1_352)" fill="#fff"><path d="M57.282 50.25a6.062 6.062 0 015.125-2.803c2.085 0 4 1.048 5.125 2.803l2.711 4.228c.45.702.657 1.513.6 2.344a3.828 3.828 0 01-.915 2.24 3.828 3.828 0 01-2.07 1.252 3.826 3.826 0 01-2.41-.229l-.05-.023a7.574 7.574 0 00-6.032.023 3.833 3.833 0 01-2.408.23 3.827 3.827 0 01-2.071-1.253 3.826 3.826 0 01-.916-2.24 3.827 3.827 0 01.6-2.344l2.711-4.228zM69.513 50.244c-.806-.31-1.42-.96-1.725-1.83-.291-.828-.267-1.763.067-2.633.335-.869.944-1.578 1.716-1.998.81-.44 1.7-.512 2.505-.202 1.62.623 2.363 2.625 1.657 4.463-.564 1.464-1.88 2.387-3.21 2.387a2.8 2.8 0 01-1.01-.187zM64.253 46.931c-2.025 0-3.672-1.877-3.672-4.184 0-2.307 1.647-4.184 3.672-4.184 2.025 0 3.672 1.877 3.672 4.184 0 2.307-1.647 4.184-3.672 4.184zM57.911 47.959c-.311.103-.63.153-.946.153-1.476 0-2.915-1.075-3.464-2.727-.317-.95-.296-1.956.058-2.83.37-.916 1.057-1.58 1.933-1.872.877-.291 1.824-.17 2.67.342.806.489 1.425 1.281 1.74 2.232.667 2.006-.226 4.115-1.99 4.702zM50.178 47.47c1.397-1.031 3.485-.584 4.656.997 1.17 1.583.987 3.71-.407 4.742a2.87 2.87 0 01-1.724.557c-1.072 0-2.187-.547-2.933-1.553-1.17-1.583-.987-3.71.408-4.742z"/></g><defs><filter id="afilter0_d_1_352" x="0" y="0" width="124" height="124" filterUnits="userSpaceOnUse" color-interpolation-filters="sRGB"><feFlood flood-opacity="0" result="BackgroundImageFix"/><feColorMatrix in="SourceAlpha" values="0 0 0 0 0 0 0 0 0 0 0 0 0 0 0 0 0 0 127 0" result="hardAlpha"/><feOffset dy="12"/><feGaussianBlur stdDeviation="16"/><feColorMatrix values="0 0 0 0 0.035243 0 0 0 0 0.130198 0 0 0 0 0.241667 0 0 0 0.15 0"/><feBlend in2="BackgroundImageFix" result="effect1_dropShadow_1_352"/><feBlend in="SourceGraphic" in2="effect1_dropShadow_1_352" result="shape"/></filter><filter id="afilter1_d_1_352" x="13.049" y="13.049" width="97.774" height="97.774" filterUnits="userSpaceOnUse" color-interpolation-filters="sRGB"><feFlood flood-opacity="0" result="BackgroundImageFix"/><feColorMatrix in="SourceAlpha" values="0 0 0 0 0 0 0 0 0 0 0 0 0 0 0 0 0 0 127 0" result="hardAlpha"/><feOffset dy="12"/><feGaussianBlur stdDeviation="16"/><feColorMatrix values="0 0 0 0 0.035243 0 0 0 0 0.130198 0 0 0 0 0.241667 0 0 0 0.15 0"/><feBlend in2="BackgroundImageFix" result="effect1_dropShadow_1_352"/><feBlend in="SourceGraphic" in2="effect1_dropShadow_1_352" result="shape"/></filter><clipPath id="aclip0_1_352"><path fill="#fff" transform="matrix(-1 0 0 1 74 37)" d="M0 0h25v25H0z"/></clipPath></defs></svg><svg viewBox="0 0 21 16" id="application--arrow" xmlns="http://www.w3.org/2000/svg"><path d="M20.707 8.707a1 1 0 000-1.414L14.343.929a1 1 0 10-1.414 1.414L18.586 8l-5.657 5.657a1 1 0 001.414 1.414l6.364-6.364zM0 9h20V7H0v2z"/></svg><svg fill="none" viewBox="0 0 137 137" id="connection--heart" xmlns="http://www.w3.org/2000/svg"><g opacity=".5" fill="#FBCE45"><path d="M73.373 41.625c-2.5.036-5.095 1.288-6.833 3.014-2.921 2.9-4.54 8.183-1.272 11.474 3.27 3.295 8.563 1.713 11.484-1.185 2.922-2.9 4.538-8.184 1.272-11.475-1.31-1.32-2.958-1.853-4.651-1.828zm2.438 7.028c-.226 1.308-1.11 2.654-1.887 3.425-1.296 1.287-4.177 2.85-5.808 1.207-1.626-1.64-.038-4.518 1.252-5.798 1.301-1.291 4.174-2.852 5.807-1.206.649.654.787 1.504.636 2.372zM59.027 51.401c3.517-3.49 4.088-8.638 1.273-11.474-3.27-3.294-8.562-1.713-11.484 1.186-2.92 2.897-4.534 8.187-1.273 11.473 3.27 3.295 8.563 1.715 11.484-1.185zm-9.27-4.014c.228-1.308 1.11-2.654 1.886-3.425 1.303-1.294 4.174-2.854 5.808-1.208 1.235 1.245.663 3.9-1.251 5.799-1.3 1.29-4.176 2.85-5.808 1.206-.649-.653-.786-1.504-.635-2.372zM91.405 56.936c-3.27-3.295-8.563-1.714-11.484 1.186-3.517 3.49-4.088 8.638-1.272 11.475 3.267 3.293 8.564 1.712 11.483-1.187 2.922-2.9 4.54-8.183 1.273-11.474zm-2.25 5.194c-.174 1.187-.848 2.437-1.85 3.432-1.294 1.285-4.178 2.848-5.808 1.206-1.234-1.244-.661-3.899 1.252-5.798 1.906-1.892 7.047-3.232 6.406 1.16zM82.831 88.159c3.269 3.294 8.563 1.714 11.484-1.186 2.922-2.9 4.538-8.183 1.272-11.474-3.267-3.294-8.561-1.714-11.484 1.185-3.516 3.491-4.088 8.638-1.272 11.475zm4.1-8.626c1.27-1.26 4.166-2.861 5.808-1.206 1.627 1.64.04 4.515-1.251 5.797-1.3 1.289-4.177 2.851-5.809 1.207-1.234-1.243-.661-3.9 1.251-5.798zM35.613 67.759c-1.966 7.79 3.324 11.278 7.99 14.356 4.095 2.701 6.958 5.586 9.627 9.7 3.37 5.194 7.534 9.752 14.296 8.1 5.07-1.24 8.93-4.932 10.324-9.88 1.11-3.938.401-7.793-1.85-10.061-1.766-1.78-1.795-3.374-1.835-5.584-.048-2.647-.109-5.942-3.572-9.432-3.465-3.491-6.759-3.576-9.406-3.645-2.208-.056-3.804-.098-5.57-1.877-1.541-1.553-3.861-2.408-6.534-2.408-5.183 0-11.61 3.358-13.47 10.73zm13.47-6.718c1.572 0 2.915.446 3.685 1.222 2.9 2.923 5.903 3 8.315 3.063 2.42.061 4.332.112 6.66 2.458 2.33 2.348 2.366 4.26 2.41 6.679.043 2.412.098 5.415 2.998 8.338 1.197 1.205 1.533 3.675.837 6.146-.998 3.535-3.77 6.178-7.415 7.069-5.018 1.226-7.554-2.653-9.975-6.385-2.97-4.579-6.23-7.862-10.785-10.867-4.978-3.283-7.52-5.22-6.308-10.022 1.335-5.292 5.9-7.7 9.578-7.7z"/><path d="M117.82 88.093c.845.672 2.133.541 2.82-.322C131.417 74.209 137.074 60.11 136.999 47c-.066-11.627-4.621-21.947-12.824-29.059-7.42-6.43-17.017-9.527-27.024-8.717-10.303.834-20.17 5.697-28.653 14.096-8.018-7.935-17.332-12.74-27.05-13.933-9.452-1.159-18.781 1.214-26.272 6.681C7.42 21.73 2.238 30.275.582 40.134c-1.835 10.932.689 23.046 7.301 35.032 4.652 8.434 11.312 16.818 19.796 24.92 11.245 10.738 24.127 19.673 37.556 27.454a6.527 6.527 0 006.53-.001c18.059-10.481 32.707-21.767 43.54-33.546a2.007 2.007 0 10-2.954-2.716c-10.558 11.48-24.893 22.513-42.599 32.789a2.472 2.472 0 01-2.505.001 270.08 270.08 0 01-1.105-.643c11.468-11.106 34.298-33.372 35.086-34.164 5.589-5.546 6.218-14.006 1.402-18.86a11.04 11.04 0 00-4.077-2.594 15.898 15.898 0 001.871-3.225c.802-1.863 1.203-3.817 1.194-5.715-.015-3.038-1.079-5.94-3.237-8.116-2.626-2.643-6.419-3.747-10.307-3.153.19-1.183.227-2.393.09-3.584-.659-5.79-5.474-9.974-11.26-10.044-3.211-.039-6.387 1.097-8.96 2.997-3.04-8.563-13.627-9.015-20.025-4.073-.49.38-15.085 14.944-22.757 22.71a2.007 2.007 0 102.854 2.821c7.093-7.162 14.133-14.382 21.322-21.447 3.088-3.035 8.385-4.797 12.27-2.063 1.954 1.375 2.99 3.69 3.011 6.05.016 1.829 2.374 2.671 3.546 1.27 3.243-3.876 9.94-6.2 13.985-2.14 2.525 2.54 2.528 6.537 1.114 9.63-.743 1.628 1.007 3.4 2.645 2.666 3.55-1.59 7.327-1.124 9.623 1.187 2.748 2.77 2.736 7.415.256 11.192a12.49 12.49 0 01-2.5 2.775c-1.41 1.159-.578 3.527 1.241 3.558 3.32.053 6.264 2.148 7.091 5.418.731 2.89-.15 6.361-2.513 9.13-6.625 7.764-14.51 14.302-21.825 21.386-4.826 4.824-9.804 9.507-14.706 14.254-12.595-7.666-23.398-15.772-32.126-24.106-7.749-7.4-13.905-15.016-18.318-22.656.707-.72 7.552-7.662 10.245-10.392.779-.789.77-2.059-.019-2.837-.78-.77-2.07-.76-2.837.018a21330.97 21330.97 0 00-9.386 9.518C4.91 60.45 2.978 50.115 4.54 40.8c1.481-8.818 6.1-16.45 13.002-21.487 6.665-4.866 14.981-6.975 23.416-5.94 9.375 1.15 18.394 6.06 26.082 14.2a2.01 2.01 0 002.918 0c8.108-8.584 17.623-13.545 27.517-14.346 8.925-.723 17.473 2.03 24.071 7.75 13.866 12.02 17.993 36.564-4.049 64.298-.69.867-.545 2.129.323 2.819z"/></g></svg><svg viewBox="0 0 20 20" id="footer--instagram" xmlns="http://www.w3.org/2000/svg"><g clip-path="url(#dclip0_1_53)"><path d="M14.556 0H5.403A5.409 5.409 0 000 5.402v9.154a5.409 5.409 0 005.402 5.402h9.154a5.409 5.409 0 005.402-5.402V5.403A5.409 5.409 0 0014.556 0zm4.232 14.556a4.237 4.237 0 01-4.232 4.232H5.403a4.237 4.237 0 01-4.233-4.232V5.403A4.237 4.237 0 015.402 1.17h9.154a4.237 4.237 0 014.232 4.232v9.154z"/><path d="M9.98 4.522a5.463 5.463 0 00-5.458 5.457 5.463 5.463 0 005.457 5.457 5.463 5.463 0 005.457-5.457A5.463 5.463 0 009.98 4.522zm0 9.744A4.292 4.292 0 015.691 9.98a4.292 4.292 0 014.287-4.287 4.292 4.292 0 014.287 4.287 4.292 4.292 0 01-4.287 4.287zM15.567 2.584c-.89 0-1.613.723-1.613 1.612 0 .89.724 1.613 1.613 1.613.89 0 1.613-.723 1.613-1.613 0-.889-.724-1.612-1.613-1.612zm0 2.055a.443.443 0 11.001-.886.443.443 0 01-.001.886z"/></g><defs><clipPath id="dclip0_1_53"><path d="M0 0h19.958v19.958H0z"/></clipPath></defs></svg><svg viewBox="0 0 20 20" id="footer--telegram" xmlns="http://www.w3.org/2000/svg"><g clip-path="url(#eclip0_1_48)"><path d="M19.65 1.983c-.244-.299-.609-.463-1.028-.463-.228 0-.47.048-.718.143L1.01 8.113c-.897.341-1.017.855-1.01 1.13.008.276.158.782 1.072 1.073a.51.51 0 00.017.005l3.504 1.002 1.895 5.42c.259.739.839 1.198 1.514 1.198.426 0 .845-.179 1.212-.516l2.167-1.996 3.144 2.531.001.001.03.024.008.007c.35.27.731.414 1.104.414.728 0 1.308-.539 1.476-1.373l2.769-13.668c.11-.549.017-1.04-.263-1.382zm-13.885 9.15l6.761-3.454-4.21 4.473a.583.583 0 00-.141.26l-.812 3.289-1.598-4.568zm2.656 5.431a1.124 1.124 0 01-.084.07l.753-3.05 1.37 1.103-2.039 1.877zM18.766 3.133L15.998 16.8c-.026.131-.111.435-.33.435-.108 0-.244-.059-.383-.166l-3.563-2.868-.001-.001-2.12-1.707 6.088-6.469a.585.585 0 00-.692-.921L4.984 10.219 1.432 9.203l16.89-6.447a.857.857 0 01.3-.066c.035 0 .1.004.123.033.03.038.07.167.021.41z"/></g><defs><clipPath id="eclip0_1_48"><path d="M0 0h19.958v19.958H0z"/></clipPath></defs></svg><svg viewBox="0 0 22 22" id="footer--vk" xmlns="http://www.w3.org/2000/svg"><g clip-path="url(#fclip0_1_46)"><path d="M11.038 17.722c3.155 0 2.03-1.998 2.273-2.572-.003-.43-.007-.842.008-1.093.2.057.671.296 1.646 1.243 1.504 1.518 1.888 2.422 3.103 2.422h2.237c.709 0 1.078-.294 1.262-.54.178-.238.353-.656.162-1.307-.5-1.567-3.41-4.272-3.59-4.558.027-.052.07-.122.094-.159h-.002c.574-.758 2.766-4.043 3.089-5.357l.002-.007c.174-.6.014-.99-.151-1.21-.25-.328-.645-.494-1.18-.494h-2.237c-.75 0-1.317.377-1.604 1.065-.481 1.222-1.832 3.736-2.844 4.626-.03-1.26-.01-2.223.006-2.939.033-1.395.139-2.752-1.31-2.752H8.488c-.907 0-1.774.99-.835 2.166.822 1.03.296 1.605.473 4.464-.69-.74-1.92-2.74-2.788-5.297-.244-.692-.613-1.332-1.652-1.332H1.45C.542 4.09 0 4.585 0 5.413c0 1.86 4.116 12.309 11.038 12.309zM3.685 5.454c.197 0 .217 0 .364.415.89 2.62 2.885 6.497 4.343 6.497 1.095 0 1.095-1.122 1.095-1.545V7.457c-.06-1.114-.466-1.668-.732-2.004l3.188.003c.002.016-.018 3.722.009 4.62 0 1.275 1.012 2.006 2.593.406 1.667-1.882 2.82-4.696 2.867-4.81.068-.164.127-.22.342-.22H20c-.002.004-.002.006-.002.009-.205.954-2.223 3.995-2.899 4.94a.807.807 0 00-.03.045c-.298.485-.54 1.021.04 1.776h.001c.053.063.19.212.39.42.622.641 2.754 2.835 2.943 3.707-.126.02-.262.006-2.375.01-.45 0-.801-.672-2.144-2.026-1.207-1.174-1.99-1.654-2.704-1.654-1.385 0-1.284 1.124-1.27 2.484.004 1.474-.005 1.008.005 1.1-.081.032-.313.096-.917.096-5.767 0-9.522-9.153-9.667-10.903.05-.004.738-.001 2.314-.002z"/></g><defs><clipPath id="fclip0_1_46"><path d="M0 0h21.812v21.812H0z"/></clipPath></defs></svg><svg viewBox="0 0 20 20" id="footer--whatsapp" xmlns="http://www.w3.org/2000/svg"><g clip-path="url(#gclip0_1_50)"><path d="M4.827 18.534a9.905 9.905 0 005.117 1.417c5.49 0 10.014-4.48 10.014-9.976C19.958 4.485 15.44 0 9.944 0 4.464 0 .007 4.475.007 9.975c0 1.836.49 3.613 1.417 5.156L0 19.958l4.827-1.424zm-3.65-8.559c0-4.855 3.932-8.806 8.767-8.806 4.877 0 8.845 3.95 8.845 8.806 0 4.857-3.968 8.807-8.845 8.807a8.737 8.737 0 01-4.716-1.375l-.225-.144-3.274.966.966-3.274-.144-.224a8.806 8.806 0 01-1.375-4.756z"/><path d="M4.858 8.137c.193 1.014.766 2.964 2.435 4.633s3.62 2.242 4.633 2.435c1.161.221 2.865.255 3.698-.578l.464-.464c.235-.235.364-.546.364-.878 0-.331-.13-.643-.364-.877l-1.856-1.857a1.232 1.232 0 00-.878-.363c-.331 0-.643.129-.877.363l-.464.464c-.284.284-.82.285-1.105.004l-1.852-1.93-.008-.008a.73.73 0 010-1.03l.464-.464a1.24 1.24 0 000-1.755L7.655 3.974a1.242 1.242 0 00-1.754 0l-.465.464c-.664.665-.886 2.082-.578 3.698zm1.405-2.871c.487-.476.461-.485.515-.485.019 0 .037.007.051.02C8.785 6.769 8.707 6.654 8.707 6.71a.07.07 0 01-.021.051l-.465.464a1.896 1.896 0 00-.004 2.679l1.853 1.93.008.009c.74.74 2.02.742 2.761 0l.464-.464a.072.072 0 01.102 0c1.957 1.967 1.878 1.851 1.878 1.907a.07.07 0 01-.021.051l-.464.464c-.318.318-1.332.509-2.653.257-.882-.168-2.578-.666-4.025-2.113C6.672 10.496 6.175 8.8 6.007 7.919c-.252-1.322-.062-2.335.256-2.653z"/></g><defs><clipPath id="gclip0_1_50"><path d="M0 0h19.958v19.958H0z"/></clipPath></defs></svg><svg fill="none" viewBox="0 0 13 19" id="header--marker" xmlns="http://www.w3.org/2000/svg"><path d="M6.5 0C2.916 0 0 2.925 0 6.52c0 4.462 5.817 11.012 6.065 11.288.232.26.638.26.87 0C7.183 17.532 13 10.982 13 6.52 13 2.925 10.084 0 6.5 0zm0 9.8a3.279 3.279 0 01-3.27-3.28A3.279 3.279 0 016.5 3.24a3.279 3.279 0 013.27 3.28A3.279 3.279 0 016.5 9.8z" fill="#64605B"/></svg><svg fill="none" viewBox="0 0 50 50" id="hero--ball" xmlns="http://www.w3.org/2000/svg"><g clip-path="url(#iclip0_1_401)"><path d="M17 15.5c-.088.614-3.261 6.4-3.5 7-.405 1.019.785 4.29 0 5-.847.766 3.706 6 2.5 6-.347.055 7.102 2.657 8 4 .255.381 9.72-3.901 10-3.5.275.394 5.76-8.583 5-8-.778.596 6-13.5 9-9.5 1 2-7.038 15.098-8 15.5-2 3-5 6-6.849 7-1.735.639-12.55 2.04-12.65 2-.86-.34-8.521-6.228-9-7-.685-1.1-1.5-2.182-1.5-3.5.328-.764-1.322-7.654-.5-8.5.647-.667 1.201-5.392 2-6 1.874-1.428 8.575-7.297 10-7.5.84 0 10.264-6.34 11-5.5.636.728 2.553.313 2.5 1-.042.53-8.664 5.57-9 6-.513.653-8.64 4.78-9 5.5z" fill="#FBCE45"/><path d="M42.677 7.42a25.006 25.006 0 00-6.133-4.497.988.988 0 00-.184-.095 25.011 25.011 0 00-4.211-1.686.942.942 0 00-.167-.05A25.013 25.013 0 0010.429 4.78a.977.977 0 001.14 1.586c5.381-3.869 11.893-5.123 17.977-3.892-3.71 2.628-6.635 4.214-9.044 5.52-2.968 1.61-5.311 2.88-7.519 5.088a16.882 16.882 0 00-4.977 12.016 16.88 16.88 0 004.977 12.016A16.882 16.882 0 0025 42.09c3.08 0 6.098-.832 8.726-2.407a.977.977 0 00-1.004-1.675 15.023 15.023 0 01-7.722 2.13 14.942 14.942 0 01-10.635-4.406A14.942 14.942 0 019.96 25.097c0-4.017 1.565-7.794 4.405-10.635 2.007-2.006 4.13-3.158 7.069-4.751 2.736-1.484 6.123-3.32 10.563-6.6.733.235 1.456.507 2.166.816-5.007 3.806-8.745 5.834-11.793 7.487-2.678 1.452-4.793 2.599-6.623 4.43a13.002 13.002 0 00-3.834 9.253c0 3.496 1.362 6.782 3.833 9.254A13.001 13.001 0 0025 38.184c3.496 0 6.782-1.361 9.254-3.833 1.83-1.83 2.977-3.945 4.43-6.623 1.65-3.044 3.675-6.777 7.473-11.774.307.714.576 1.44.808 2.176-3.265 4.426-5.097 7.804-6.578 10.534-.852 1.571-1.588 2.928-2.407 4.165a.976.976 0 101.63 1.078c.865-1.309 1.62-2.7 2.494-4.312 1.301-2.4 2.88-5.312 5.491-9.002 1.443 7.296-.655 15.16-6.298 20.802-8.986 8.986-23.608 8.986-32.594 0C.677 33.368-.347 20.867 6.267 11.666a.977.977 0 00-1.586-1.14A25.017 25.017 0 00.073 27.02a24.998 24.998 0 007.248 15.755c4.722 4.722 11 7.323 17.678 7.323 6.678 0 12.957-2.6 17.679-7.323C47.4 38.053 50 31.775 50 25.097c0-6.678-2.6-12.956-7.323-17.678zm-5.712 19.378c-1.43 2.637-2.463 4.542-4.093 6.172a11.062 11.062 0 01-7.873 3.261c-2.973 0-5.77-1.158-7.872-3.261a11.06 11.06 0 01-3.262-7.873 11.06 11.06 0 013.262-7.872c1.63-1.63 3.535-2.664 6.172-4.094 3.264-1.77 7.301-3.96 12.814-8.24a23.27 23.27 0 015.183 3.91 22.973 22.973 0 013.901 5.193c-4.275 5.508-6.463 9.542-8.232 12.804z" fill="#64605B"/><path d="M8.012 9.087a.976.976 0 100-1.953.976.976 0 000 1.953zM36.324 37.4c.28 0 .557-.12.75-.352h.001a.976.976 0 10-.751.352z" fill="#64605B"/></g><defs><clipPath id="iclip0_1_401"><path fill="#fff" d="M0 0h50v50H0z"/></clipPath></defs></svg><svg fill="none" viewBox="0 0 65 54" id="hero--bowl" xmlns="http://www.w3.org/2000/svg"><g clip-path="url(#jclip0_1_369)"><path d="M62.294 45.993l-2.39-14.337c-.602-3.614-3.076-6.059-6.18-6.135a7.111 7.111 0 00-5.958-5.674 7.113 7.113 0 00-3.486-5.138 7.113 7.113 0 00-6.193-.45 7.112 7.112 0 00-5.587-2.706 7.113 7.113 0 00-5.64 2.775 1.27 1.27 0 00-.606 2.414c.148.07.293.15.431.235a1.271 1.271 0 001.783-.478 4.578 4.578 0 018.064 0 1.27 1.27 0 001.783.478 4.578 4.578 0 016.983 4.032 1.269 1.269 0 001.306 1.305 4.57 4.57 0 014.5 3.204H13.896a4.57 4.57 0 014.5-3.204 1.27 1.27 0 001.306-1.305c-.004-.161 0-.327.013-.49a1.27 1.27 0 00-2.393-.684 7.116 7.116 0 00-6.044 5.686c-3.105.076-5.579 2.522-6.182 6.136l-2.39 14.336A3.815 3.815 0 000 49.64c0 2.1 1.708 3.808 3.809 3.808H61.19c2.1 0 3.809-1.708 3.809-3.808a3.815 3.815 0 00-2.706-3.646zM7.6 32.074c.309-1.853 1.496-4.017 3.826-4.017h42.148c2.33 0 3.517 2.164 3.826 4.017l2.293 13.756H5.307L7.6 32.074zM61.19 50.908H3.81a1.27 1.27 0 010-2.539h57.384a1.27 1.27 0 01-.002 2.54z" fill="#64605B"/><path d="M30.93 42.008c.418.42.976.65 1.57.65.594 0 1.152-.23 1.571-.65l3.534-3.534a4.25 4.25 0 000-6.002 4.252 4.252 0 00-5.105-.686 4.252 4.252 0 00-5.104.686 4.25 4.25 0 000 6.003l3.534 3.533zm-1.74-7.74a1.7 1.7 0 011.207-.499 1.7 1.7 0 011.206.498 1.27 1.27 0 001.795 0 1.707 1.707 0 012.411 0 1.707 1.707 0 010 2.412L32.5 39.99l-3.31-3.31a1.708 1.708 0 010-2.412z" fill="#FBCE45"/><path d="M25.332 22.122a1.27 1.27 0 10-1.27-1.27v.001c0 .701.569 1.27 1.27 1.27zM29.87 22.82a1.269 1.269 0 102.539.003 1.269 1.269 0 00-2.538-.003zM47.227 43.29h7.616a1.27 1.27 0 100-2.538h-7.616a1.27 1.27 0 000 2.538zM42.15 43.29a1.27 1.27 0 000-2.538h-.002a1.27 1.27 0 10.001 2.538zM23.87 11.82a1.269 1.269 0 102.539.003 1.269 1.269 0 00-2.538-.003z" fill="#64605B"/></g><path d="M33.171 17.995a1.27 1.27 0 10-2.539 0 1.27 1.27 0 102.54 0zM21.356 17.078a1.27 1.27 0 10-.666-2.35h-.001a1.269 1.269 0 00.667 2.35z" fill="#64605B"/><defs><clipPath id="jclip0_1_369"><path fill="#fff" d="M0 0h65v53.083H0z"/></clipPath></defs></svg><svg fill="none" viewBox="0 0 33 33" id="hero--download" xmlns="http://www.w3.org/2000/svg"><path d="M8.916 25.603v2.32a.451.451 0 00.451.451h14.266a.452.452 0 00.451-.45v-2.321a.451.451 0 00-.451-.451H9.367a.45.45 0 00-.451.45zm.902.451h13.364v1.418H9.818v-1.418zM11.633 14.046l-1.642 1.64a.45.45 0 000 .638l6.19 6.19a.452.452 0 00.638 0l6.19-6.19a.45.45 0 000-.638l-1.642-1.64a.451.451 0 00-.638 0l-2.618 2.618V5.676a.452.452 0 00-.45-.451H15.34a.451.451 0 00-.451.45v10.989l-2.617-2.618a.452.452 0 00-.639 0zm3.388 4.027a.452.452 0 00.77-.32V6.127h1.418v11.626a.45.45 0 00.77.32l3.068-3.068 1.004 1.002-5.551 5.55-5.552-5.552 1.004-1.002 3.069 3.07z" fill="#64605B"/></svg><svg fill="none" viewBox="0 0 60 60" id="hero--gps" xmlns="http://www.w3.org/2000/svg"><g clip-path="url(#lclip0_1_408)"><path d="M39.269 47.488a55.81 55.81 0 003.692-4.443c5.509-7.384 8.668-15.12 8.668-21.227 0-5.722-2.38-11.372-6.528-15.502C41.007 2.241 35.671 0 30.078 0h-.187c-3.915 0-7.948 1.196-11.366 3.371a1.172 1.172 0 001.258 1.977c3.047-1.939 6.633-3.004 10.118-3.004h.166c4.98 0 9.729 1.998 13.38 5.633 3.71 3.693 5.839 8.738 5.839 13.84 0 5.613-2.99 12.839-8.203 19.826-1.593 2.134-3.134 3.91-4.545 5.34a1.18 1.18 0 00-.198.2c-2.99 2.991-5.37 4.42-6.365 4.42-.995 0-3.375-1.429-6.365-4.42a1.132 1.132 0 00-.198-.199c-1.411-1.432-2.952-3.207-4.544-5.34-5.214-6.988-8.204-14.214-8.204-19.826 0-3.579 1.004-7.095 2.903-10.168a1.172 1.172 0 00-1.993-1.232 21.674 21.674 0 00-3.254 11.4c0 6.106 3.16 13.843 8.669 21.226a55.748 55.748 0 003.692 4.444c-2.663 1.336-4.157 3.21-4.157 5.286 0 2.087 1.51 3.98 4.25 5.332C23.252 59.327 26.52 60 29.975 60c3.456 0 6.724-.672 9.2-1.894 2.741-1.351 4.25-3.245 4.25-5.332 0-2.076-1.492-3.95-4.156-5.286zm-9.294 10.168c-6.546 0-11.107-2.573-11.107-4.882 0-1.255 1.34-2.565 3.546-3.505 2.779 2.7 5.59 4.677 7.56 4.677 1.972 0 4.783-1.976 7.562-4.677 2.205.94 3.545 2.25 3.545 3.505 0 2.31-4.56 4.882-11.106 4.882z" fill="#64605B"/><path d="M43.41 30.045a1.172 1.172 0 001.584-.49 17.01 17.01 0 001.948-7.9c0-9.355-7.611-16.967-16.967-16.967-9.356 0-16.967 7.612-16.967 16.968 0 9.355 7.611 16.967 16.967 16.967 2.75 0 5.48-.674 7.899-1.949a1.173 1.173 0 00-1.093-2.073 14.65 14.65 0 01-6.806 1.678c-8.064 0-14.623-6.56-14.623-14.624 0-8.063 6.56-14.623 14.623-14.623 8.063 0 14.623 6.56 14.623 14.623 0 2.37-.58 4.723-1.678 6.807a1.172 1.172 0 00.49 1.583zM14.736 8.222a1.168 1.168 0 001.651-.15 1.172 1.172 0 10-1.65.15z" fill="#64605B"/><path d="M40.315 31.995a1.171 1.171 0 101.656 1.659 1.171 1.171 0 00-1.656-1.659z" fill="#64605B"/><path d="M27.773 32.565a43.48 43.48 0 012.202-.072c.756 0 1.49.037 2.201.072.646.032 1.268.064 1.857.064 1.503 0 2.793-.202 3.736-1.1.792-.753 1.177-1.859 1.177-3.38 0-4.946-4.025-8.97-8.971-8.97-4.947 0-8.971 4.024-8.971 8.97 0 1.521.384 2.627 1.176 3.38 1.313 1.25 3.296 1.15 5.593 1.036zm2.202-11.043a6.634 6.634 0 016.627 6.627c0 .833-.15 1.4-.448 1.682-.585.556-2.176.477-3.862.393-.739-.036-1.503-.075-2.317-.075-.815 0-1.58.038-2.318.075-1.685.084-3.277.163-3.862-.393-.297-.283-.447-.849-.447-1.682a6.634 6.634 0 016.627-6.627zM33.56 14.51c0-2.11-1.609-3.827-3.585-3.827S26.39 12.4 26.39 14.51s1.608 3.827 3.584 3.827 3.584-1.716 3.584-3.827zm-4.825 0c0-.804.568-1.483 1.24-1.483s1.24.68 1.24 1.483c0 .804-.568 1.483-1.24 1.483s-1.24-.678-1.24-1.483zM24.323 15.745c-1.055-1.828-3.306-2.51-5.017-1.522-1.712.988-2.246 3.279-1.191 5.106a3.948 3.948 0 002.209 1.803c.367.117.74.176 1.106.176a3.39 3.39 0 001.703-.457c1.711-.988 2.245-3.279 1.19-5.106zm-2.362 3.077a1.134 1.134 0 01-.923.077 1.612 1.612 0 01-.893-.742c-.41-.708-.26-1.563.332-1.905.593-.342 1.407-.043 1.816.665.409.708.26 1.563-.332 1.904zM40.644 14.222c-.847-.489-1.845-.588-2.809-.28a3.947 3.947 0 00-2.208 1.803c-1.055 1.827-.522 4.118 1.19 5.106a3.386 3.386 0 001.7.453c1.295 0 2.59-.716 3.318-1.975 1.055-1.828.52-4.118-1.19-5.107zm-.84 3.935c-.408.708-1.223 1.006-1.815.665-.592-.342-.741-1.197-.332-1.905a1.61 1.61 0 01.892-.743c.13-.041.26-.062.388-.062.19 0 .374.047.535.14.592.343.742 1.197.333 1.905z" fill="#FBCE45"/></g><defs><clipPath id="lclip0_1_408"><path fill="#fff" d="M0 0h60v60H0z"/></clipPath></defs></svg><svg fill="none" viewBox="0 0 38 60" id="hero--tel" xmlns="http://www.w3.org/2000/svg"><path d="M32.722 0H5.03A5.036 5.036 0 000 5.03v49.94A5.036 5.036 0 005.03 60h27.693a5.036 5.036 0 005.03-5.03V5.03A5.036 5.036 0 0032.723 0zm2.687 52.122H10.212a1.172 1.172 0 000 2.344h25.197v.504a2.69 2.69 0 01-2.686 2.686H5.03a2.69 2.69 0 01-2.686-2.686v-6.038h33.065v3.19zm0-5.533H2.344v-34.53h33.065v34.53zm0-36.874H2.344V5.03A2.69 2.69 0 015.03 2.344h27.693a2.69 2.69 0 012.686 2.686v4.685z" fill="#64605B"/><path d="M7.009 53.065a1.242 1.242 0 00-.175-.421 1.18 1.18 0 00-1.625-.325 1.195 1.195 0 00-.324.325 1.196 1.196 0 00-.198.65 1.18 1.18 0 00.522.974 1.16 1.16 0 00.422.175 1.15 1.15 0 00.879-.175 1.123 1.123 0 00.324-.323 1.168 1.168 0 00.175-.88z" fill="#64605B"/><path d="M30.633 26.693c0-2.002-1.5-3.659-3.434-3.909a4.362 4.362 0 00-1.202-3.835 4.466 4.466 0 00-3.208-1.344 4.477 4.477 0 00-3.913 2.308 4.477 4.477 0 00-3.913-2.308 4.48 4.48 0 00-4.42 5.173 3.848 3.848 0 00-2.236 1.085 3.99 3.99 0 00-1.187 2.83 3.95 3.95 0 002.817 3.778 7.076 7.076 0 00-1.95 4.864 7.067 7.067 0 007.06 7.06 7.059 7.059 0 003.83-1.131 7.057 7.057 0 003.83 1.13 7.067 7.067 0 007.058-7.059 7.076 7.076 0 00-1.95-4.864 3.95 3.95 0 002.818-3.778zm-7.844-6.744a2.14 2.14 0 011.537.643c.392.399.603.92.594 1.469a2.206 2.206 0 01-2.152 2.15 2.021 2.021 0 01-.974-.233 2.143 2.143 0 01-1.135-1.898c0-1.175.956-2.13 2.13-2.13zm-7.826 0c1.175 0 2.13.956 2.13 2.13 0 1.176-.955 2.131-2.13 2.131a2.133 2.133 0 01-2.13-2.13c0-1.175.955-2.13 2.13-2.13zm-5.5 6.744c0-.44.173-.85.486-1.158a1.512 1.512 0 011.093-.442 1.635 1.635 0 011.093.451c.316.296.519.712.527 1.17.003.156-.02.31-.063.457a7.05 7.05 0 00-.195.41 1.611 1.611 0 01-1.341.711 1.6 1.6 0 01-1.6-1.6zM22.707 40.05a4.713 4.713 0 01-3.067-1.136 1.17 1.17 0 00-1.526 0 4.713 4.713 0 01-3.066 1.136 4.72 4.72 0 01-4.716-4.715c0-1.971 1.243-3.751 3.093-4.43.42-.153.716-.534.762-.98.046-.448.152-.874.311-1.273.1-.172.184-.35.255-.535a4.701 4.701 0 014.124-2.422 4.73 4.73 0 011.907.399c.07.035.14.068.212.099a4.697 4.697 0 012.056 2.015c.047.113.1.223.157.33.185.431.309.896.359 1.387.046.446.341.827.762.98a4.733 4.733 0 013.093 4.43c0 2.6-2.116 4.715-4.716 4.715zm3.984-11.759a1.598 1.598 0 01-1.372-.782 7.178 7.178 0 00-.13-.275 1.59 1.59 0 01-.097-.542 1.6 1.6 0 011.6-1.6 1.6 1.6 0 011.598 1.6c0 .882-.717 1.599-1.599 1.599z" fill="#FBCE45"/><path d="M32.925 5.8a1.185 1.185 0 00-.32-.599 1.184 1.184 0 00-1.058-.321 1.1 1.1 0 00-.22.068 1.153 1.153 0 00-.526.43 1.185 1.185 0 00-.198.651 1.18 1.18 0 00.522.974 1.243 1.243 0 00.422.175 1.166 1.166 0 001.058-.32 1.18 1.18 0 00.32-1.058zM27.424 4.857h-5.266a1.172 1.172 0 000 2.344h5.265a1.172 1.172 0 100-2.344z" fill="#64605B"/></svg><svg viewBox="0 0 135 47" id="logo" xmlns="http://www.w3.org/2000/svg"><path d="M62.396 5.37h-6.152v15.38h6.152c4.24 0 7.47-3.34 7.47-7.69 0-4.35-3.23-7.69-7.47-7.69zm0 11.996h-2.637V8.754h2.637c2.417 0 4.086 1.67 4.086 4.306 0 2.637-1.67 4.306-4.086 4.306zM79.18 21.057c4.416 0 7.997-3.47 7.997-7.997 0-4.526-3.58-7.997-7.997-7.997-4.416 0-7.997 3.471-7.997 7.997s3.581 7.997 7.997 7.997zm0-3.427c-2.504 0-4.482-1.823-4.482-4.57 0-2.746 1.978-4.57 4.482-4.57 2.505 0 4.482 1.824 4.482 4.57 0 2.746-1.977 4.57-4.482 4.57zM104.382 12.181h-7.711v3.076h4.108c-.549 1.472-1.89 2.373-3.933 2.373-2.988 0-4.833-1.911-4.833-4.526 0-2.702 1.933-4.614 4.526-4.614 1.736 0 3.12.791 3.757 1.802l2.988-1.714c-1.297-2.065-3.78-3.515-6.723-3.515-4.526 0-8.063 3.56-8.063 8.02 0 4.415 3.471 7.974 8.304 7.974 4.307 0 7.58-2.856 7.58-7.557V12.18zM121.589 12.181h-7.711v3.076h4.108c-.549 1.472-1.889 2.373-3.932 2.373-2.988 0-4.834-1.911-4.834-4.526 0-2.702 1.934-4.614 4.526-4.614 1.736 0 3.12.791 3.757 1.802l2.988-1.714c-1.296-2.065-3.779-3.515-6.723-3.515-4.526 0-8.063 3.56-8.063 8.02 0 4.415 3.471 7.974 8.305 7.974 4.306 0 7.579-2.856 7.579-7.557V12.18zM135 5.37h-3.998l-2.923 5.933-2.922-5.932h-3.998l5.163 9.469v5.91h3.515v-5.91L135 5.37zM62.396 24.9h-6.152v15.379h6.152c4.24 0 7.47-3.34 7.47-7.69 0-4.35-3.23-7.69-7.47-7.69zm0 11.996h-2.637v-8.613h2.637c2.417 0 4.086 1.67 4.086 4.306 0 2.637-1.67 4.307-4.086 4.307zM79.18 40.587c4.416 0 7.997-3.472 7.997-7.998 0-4.525-3.58-7.997-7.997-7.997-4.416 0-7.997 3.472-7.997 7.997 0 4.526 3.581 7.998 7.997 7.998zm0-3.428c-2.504 0-4.482-1.823-4.482-4.57 0-2.746 1.978-4.57 4.482-4.57 2.505 0 4.482 1.824 4.482 4.57 0 2.747-1.977 4.57-4.482 4.57zM30.437 14.57a.906.906 0 00-.731-.617l-3.941-.572-1.763-3.57a.906.906 0 00-1.625 0l-1.761 3.572-3.941.574a.906.906 0 00-.502 1.545l2.853 2.779-.672 3.925a.906.906 0 001.314.954l3.524-1.854 3.526 1.852a.906.906 0 001.314-.955l-.674-3.924 2.85-2.78c.247-.242.336-.602.23-.93zm-4.685 2.744a.906.906 0 00-.26.802l.443 2.585-2.322-1.22a.906.906 0 00-.843 0l-2.32 1.221.442-2.585a.906.906 0 00-.26-.802l-1.88-1.83 2.596-.378a.906.906 0 00.682-.496l1.16-2.352 1.161 2.352a.906.906 0 00.683.495l2.595.377-1.877 1.831z"/><path d="M43.55 39.802l-7.488-13.024a16.408 16.408 0 003.616-10.29C39.678 7.395 32.282 0 23.191 0 14.1 0 6.704 7.396 6.704 16.487c0 3.89 1.354 7.469 3.615 10.291L2.832 39.802a.906.906 0 00.906 1.35l5.844-.785 2.242 5.454a.906.906 0 001.623.108l7.559-13.093.003-.006a16.557 16.557 0 004.364 0l.003.006 7.56 13.093a.906.906 0 001.622-.108l2.242-5.454 5.845.785a.905.905 0 00.905-1.35zM12.8 43.427l-1.633-3.97 1.466-2.39a.906.906 0 00-1.545-.947l-1.48 2.416-4.288.575 6.276-10.915a16.486 16.486 0 007.531 4.271L12.8 43.427zm10.392-12.264c-8.092 0-14.676-6.584-14.676-14.676S15.1 1.812 23.191 1.812s14.675 6.583 14.675 14.675c0 8.093-6.583 14.676-14.675 14.676zm13.584 7.373l-1.48-2.416a.906.906 0 10-1.545.947l1.465 2.39-1.632 3.97-6.328-10.96a16.486 16.486 0 007.532-4.271l6.276 10.915-4.288-.575z"/><path d="M23.19 4.71c-2.02 0-4.015.522-5.767 1.508a.906.906 0 00.888 1.579 9.968 9.968 0 014.88-1.275c5.494 0 9.965 4.47 9.965 9.965a9.873 9.873 0 01-.967 4.288.906.906 0 001.635.78 11.672 11.672 0 001.144-5.068c0-6.493-5.283-11.776-11.777-11.776zM31.62 23.41a.906.906 0 00-1.28.02l-.02.02a.906.906 0 101.296 1.266l.024-.024a.906.906 0 00-.02-1.281zM29.223 25.578a.906.906 0 00-1.23-.356 9.974 9.974 0 01-4.802 1.23c-5.495 0-9.965-4.47-9.965-9.965 0-1.439.3-2.827.891-4.125a.906.906 0 00-1.649-.752 11.683 11.683 0 00-1.054 4.878c0 6.493 5.283 11.776 11.777 11.776a11.79 11.79 0 005.676-1.456.906.906 0 00.356-1.23zM15.853 8.416a.906.906 0 00-1.28.045l-.02.022a.906.906 0 001.33 1.23l.016-.017a.906.906 0 00-.046-1.28z"/><defs><clipPath id="nclip0_1_437"><path fill="#fff" d="M0 0h46.382v46.382H0z"/></clipPath></defs></svg><svg fill="none" viewBox="0 0 16 14" id="price--check" xmlns="http://www.w3.org/2000/svg"><path d="M13.555.556l-8 7.998-3.11-3.109L0 7.89l5.555 5.554L16 3.001 13.555.556z" fill="#fff"/></svg><svg fill="none" viewBox="0 0 15 8" id="price--vector" xmlns="http://www.w3.org/2000/svg"><path d="M8.743 7.073l6.085-6.072A.586.586 0 0014 .17L7.914 6.244a.587.587 0 01-.829 0L1 .17a.586.586 0 10-.828.83l6.085 6.072a1.76 1.76 0 002.486 0z" fill="#FBCE45"/></svg><svg fill="none" viewBox="0 0 15 29" id="reviews--arrow-left" xmlns="http://www.w3.org/2000/svg"><path d="M1.159 12.098L12.899.333a1.133 1.133 0 111.604 1.6L2.762 13.7a1.134 1.134 0 000 1.603l11.741 11.765a1.133 1.133 0 11-1.603 1.6L1.16 16.904a3.402 3.402 0 01-.001-4.805z" fill="#fff"/></svg><svg fill="none" viewBox="0 0 15 29" id="reviews--arrow-right" xmlns="http://www.w3.org/2000/svg"><path d="M13.841 12.098L2.101.333a1.133 1.133 0 00-1.604 1.6l11.741 11.766c.442.442.442 1.16 0 1.603L.496 27.067a1.133 1.133 0 001.603 1.6l11.74-11.764a3.402 3.402 0 00.001-4.805z" fill="#fff"/></svg></svg>