<svg width="135" height="47" viewBox="0 0 135 47"  xmlns="http://www.w3.org/2000/svg">
<path d="M62.3958 5.37057H56.2441V20.7498H62.3958C66.6361 20.7498 69.8658 17.4103 69.8658 13.0602C69.8658 8.71007 66.6361 5.37057 62.3958 5.37057ZM62.3958 17.3664H59.7594V8.75401H62.3958C64.8126 8.75401 66.4823 10.4238 66.4823 13.0602C66.4823 15.6966 64.8126 17.3664 62.3958 17.3664Z"/>
<path d="M79.1803 21.0574C83.5964 21.0574 87.1775 17.5861 87.1775 13.0602C87.1775 8.5343 83.5964 5.06299 79.1803 5.06299C74.7643 5.06299 71.1831 8.5343 71.1831 13.0602C71.1831 17.5861 74.7643 21.0574 79.1803 21.0574ZM79.1803 17.63C76.6757 17.63 74.6984 15.8065 74.6984 13.0602C74.6984 10.3139 76.6757 8.49036 79.1803 8.49036C81.6849 8.49036 83.6623 10.3139 83.6623 13.0602C83.6623 15.8065 81.6849 17.63 79.1803 17.63Z"/>
<path d="M104.382 12.1814H96.6706V15.2572H100.779C100.23 16.7292 98.8896 17.63 96.8464 17.63C93.8584 17.63 92.0129 15.7186 92.0129 13.1041C92.0129 10.4018 93.9463 8.49036 96.5388 8.49036C98.2745 8.49036 99.6586 9.2813 100.296 10.2919L103.284 8.57825C101.987 6.51303 99.5048 5.06299 96.5608 5.06299C92.0349 5.06299 88.4976 8.62219 88.4976 13.0822C88.4976 17.4982 91.969 21.0574 96.8024 21.0574C101.109 21.0574 104.382 18.2013 104.382 13.4996V12.1814Z"/>
<path d="M121.589 12.1814H113.878V15.2572H117.986C117.437 16.7292 116.097 17.63 114.054 17.63C111.066 17.63 109.22 15.7186 109.22 13.1041C109.22 10.4018 111.154 8.49036 113.746 8.49036C115.482 8.49036 116.866 9.2813 117.503 10.2919L120.491 8.57825C119.195 6.51303 116.712 5.06299 113.768 5.06299C109.242 5.06299 105.705 8.62219 105.705 13.0822C105.705 17.4982 109.176 21.0574 114.01 21.0574C118.316 21.0574 121.589 18.2013 121.589 13.4996V12.1814Z"/>
<path d="M135 5.37057H131.002L128.079 11.3026L125.157 5.37057H121.159L126.322 14.8398V20.7498H129.837V14.8398L135 5.37057Z"/>
<path d="M62.3958 24.8998H56.2441V40.279H62.3958C66.6361 40.279 69.8658 36.9395 69.8658 32.5894C69.8658 28.2393 66.6361 24.8998 62.3958 24.8998ZM62.3958 36.8956H59.7594V28.2832H62.3958C64.8126 28.2832 66.4823 29.953 66.4823 32.5894C66.4823 35.2258 64.8126 36.8956 62.3958 36.8956Z"/>
<path d="M79.1803 40.5866C83.5964 40.5866 87.1775 37.1153 87.1775 32.5894C87.1775 28.0635 83.5964 24.5922 79.1803 24.5922C74.7643 24.5922 71.1831 28.0635 71.1831 32.5894C71.1831 37.1153 74.7643 40.5866 79.1803 40.5866ZM79.1803 37.1592C76.6757 37.1592 74.6984 35.3357 74.6984 32.5894C74.6984 29.8431 76.6757 28.0196 79.1803 28.0196C81.6849 28.0196 83.6623 29.8431 83.6623 32.5894C83.6623 35.3357 81.6849 37.1592 79.1803 37.1592Z"/>

<g>
<path d="M30.4373 14.5694C30.3307 14.2415 30.0471 14.0026 29.7059 13.9531L25.765 13.3814L24.0016 9.81092C23.8489 9.50183 23.5341 9.30615 23.1894 9.30615H23.1892C22.8444 9.30624 22.5296 9.5021 22.377 9.81137L20.6157 13.3828L16.675 13.9565C16.3337 14.0061 16.0504 14.2453 15.9439 14.5732C15.8375 14.9012 15.9264 15.2612 16.1734 15.5018L19.0257 18.2806L18.3536 22.2056C18.2954 22.5455 18.4353 22.889 18.7143 23.0916C18.8721 23.2062 19.0589 23.2645 19.2466 23.2645C19.3908 23.2645 19.5356 23.23 19.6683 23.1603L23.1925 21.3063L26.7177 23.1584C27.0229 23.3188 27.3928 23.292 27.6717 23.0892C27.9507 22.8864 28.0903 22.5429 28.0319 22.2031L27.3577 18.2785L30.2086 15.4982C30.4553 15.2574 30.544 14.8974 30.4373 14.5694ZM25.7517 17.314C25.5382 17.5221 25.4409 17.822 25.4913 18.1159L25.9354 20.7008L23.6135 19.481C23.3496 19.3423 23.0342 19.3424 22.7703 19.4811L20.4491 20.7023L20.8918 18.117C20.9422 17.8232 20.8446 17.5233 20.6311 17.3152L18.7524 15.4849L21.3479 15.1071C21.643 15.0641 21.898 14.8787 22.0299 14.6114L23.19 12.2591L24.3514 14.6108C24.4835 14.8782 24.7386 15.0634 25.0336 15.1062L27.6293 15.4827L25.7517 17.314Z"/>
<path d="M43.5501 39.8023L36.0623 26.7782C38.3235 23.9556 39.6783 20.377 39.6783 16.4874C39.6783 7.39623 32.2821 0 23.1909 0C14.0998 0 6.70352 7.39623 6.70352 16.4874C6.70352 20.377 8.05821 23.9556 10.3195 26.7782L2.8317 39.8023C2.65976 40.1014 2.67263 40.4723 2.86495 40.7588C3.05727 41.0453 3.39599 41.1977 3.7376 41.1517L9.58184 40.3669L11.8243 45.8206C11.9557 46.1399 12.2571 46.3569 12.6018 46.3799C12.622 46.3812 12.6422 46.3819 12.6624 46.3819C12.9844 46.3819 13.2842 46.2104 13.4467 45.9289L21.0058 32.8362C21.007 32.8342 21.0078 32.8321 21.009 32.83C21.7232 32.9249 22.4513 32.9747 23.1911 32.9747C23.9309 32.9747 24.659 32.9249 25.3732 32.83C25.3744 32.832 25.3752 32.8341 25.3764 32.8362L32.9355 45.9289C33.098 46.2104 33.3979 46.3819 33.7198 46.3819C33.74 46.3819 33.7602 46.3812 33.7805 46.3799C34.1251 46.3569 34.4265 46.1399 34.5579 45.8206L36.8005 40.3669L42.6447 41.1517C42.987 41.1977 43.325 41.0453 43.5173 40.7588C43.7091 40.4723 43.7221 40.1014 43.5501 39.8023ZM12.799 43.427L11.1665 39.4571L12.6315 37.0666C12.8929 36.64 12.759 36.0822 12.3324 35.8209C11.9058 35.5595 11.3481 35.6933 11.0867 36.1199L9.60639 38.5356L5.31876 39.1113L11.5945 28.1955C13.6502 30.2317 16.237 31.7322 19.1265 32.4674L12.799 43.427ZM23.1908 31.163C15.0987 31.163 8.51524 24.5795 8.51524 16.4874C8.51524 8.39526 15.0987 1.8118 23.1908 1.8118C31.283 1.8118 37.8664 8.39526 37.8664 16.4874C37.8664 24.5795 31.283 31.163 23.1908 31.163ZM36.7754 38.5356L35.295 36.1199C35.0337 35.6933 34.4759 35.5593 34.0493 35.8209C33.6227 36.0823 33.4888 36.64 33.7503 37.0666L35.2152 39.4571L33.5828 43.427L27.2552 32.4674C30.1447 31.7322 32.7317 30.2317 34.7873 28.1955L41.063 39.1113L36.7754 38.5356Z"/>
<path d="M23.1908 4.71069C21.1692 4.71069 19.1746 5.23177 17.4227 6.21775C16.9867 6.46307 16.8322 7.01549 17.0775 7.4515C17.3228 7.88751 17.8752 8.04223 18.3112 7.79674C19.7925 6.96313 21.4798 6.52249 23.1908 6.52249C28.6854 6.52249 33.1557 10.9928 33.1557 16.4874C33.1557 17.9888 32.8304 19.4315 32.1888 20.7752C31.9733 21.2267 32.1645 21.7674 32.616 21.983C32.7421 22.0432 32.8749 22.0716 33.0058 22.0716C33.3439 22.0716 33.6684 21.8813 33.8239 21.5558C34.5827 19.9664 34.9675 18.2612 34.9675 16.4874C34.9675 9.99373 29.6846 4.71069 23.1908 4.71069Z"/>
<path d="M31.6206 23.4106C31.2616 23.0622 30.688 23.0708 30.3396 23.4298L30.3195 23.4504C29.97 23.8083 29.9768 24.382 30.3347 24.7314C30.5109 24.9035 30.7393 24.9892 30.9675 24.9892C31.2029 24.9892 31.4383 24.898 31.6158 24.7161L31.6397 24.6916C31.9882 24.3326 31.9796 23.7591 31.6206 23.4106Z"/>
<path d="M29.2232 25.5778C28.9817 25.1396 28.4308 24.9801 27.9926 25.2216C26.5313 26.0268 24.8708 26.4524 23.1909 26.4524C17.6962 26.4524 13.226 21.9822 13.226 16.4875C13.226 15.0481 13.5259 13.6599 14.1174 12.3615C14.3248 11.9062 14.1238 11.369 13.6685 11.1615C13.2132 10.9542 12.676 11.1551 12.4685 11.6104C11.7688 13.1463 11.4141 14.7871 11.4141 16.4875C11.4141 22.9812 16.6971 28.2642 23.1908 28.2642C25.1757 28.2642 27.1385 27.7608 28.867 26.8084C29.3051 26.5668 29.4647 26.016 29.2232 25.5778Z"/>
<path d="M15.8531 8.41564C15.4871 8.07456 14.9138 8.09504 14.5728 8.46102L14.5527 8.48267C14.213 8.84992 14.2352 9.42309 14.6024 9.7628C14.7766 9.92405 14.9972 10.0038 15.2174 10.0038C15.4611 10.0038 15.704 9.90602 15.8826 9.71307L15.8985 9.69595C16.2395 9.32987 16.2192 8.75662 15.8531 8.41564Z"/>
</g>
<defs>
<clipPath id="clip0_1_437">
<rect width="46.3819" height="46.3819" fill="white"/>
</clipPath>
</defs>
</svg>
