<svg width="50" height="50" viewBox="0 0 50 50" fill="none" xmlns="http://www.w3.org/2000/svg">
<g clip-path="url(#clip0_1_401)">
<path d="M17.0001 15.5C16.9119 16.1145 13.7387 21.9004 13.5001 22.5C13.0947 23.5188 14.285 26.7903 13.5001 27.5C12.6528 28.2662 17.2063 33.5 16.0001 33.5C15.6529 33.5546 23.1015 36.1565 24.0001 37.5C24.2549 37.8811 33.7198 33.5985 34.0001 34C34.2751 34.394 39.7604 25.4169 39.0001 26C38.2225 26.5965 45.0001 12.5 48.0001 16.5C49.0001 18.5 40.9623 31.5975 40.0001 32C38.0001 35 35.0001 38 33.151 39C31.4156 39.6386 20.601 41.0399 20.5001 41C19.6403 40.6603 11.9797 34.7715 11.5001 34C10.8159 32.8995 10.0001 31.8182 10.0001 30.5C10.3293 29.7357 8.67892 22.8455 9.50009 22C10.1483 21.3326 10.702 16.608 11.5001 16C13.3749 14.572 20.0756 8.70253 21.5001 8.50004C22.3402 8.50004 31.765 2.15981 32.5001 3.00004C33.1374 3.72848 35.0535 3.31266 35.0001 4.00004C34.959 4.5291 26.3366 9.57062 26.0001 10C25.4885 10.653 17.3619 14.78 17.0001 15.5Z" fill="#FBCE45"/>
<path d="M42.6773 7.41926C40.8607 5.6027 38.7886 4.0917 36.544 2.92288C36.4857 2.88435 36.4242 2.85307 36.3602 2.82789C35.0117 2.1401 33.6021 1.57553 32.1487 1.14179C32.0946 1.12005 32.0389 1.10365 31.9816 1.0922C30.3409 0.614984 28.6461 0.302942 26.9218 0.170953C21.0449 -0.279563 15.1882 1.35771 10.4282 4.77949C9.99028 5.0942 9.89072 5.70456 10.2054 6.14248C10.5201 6.58003 11.1305 6.68036 11.5684 6.36526C16.9502 2.49639 23.4619 1.24212 29.546 2.47274C25.8358 5.10107 22.9114 6.68722 20.5017 7.99376C17.5342 9.6028 15.1905 10.8739 12.9833 13.081C9.77361 16.2907 8.00626 20.5582 8.00626 25.0973C8.00626 29.6365 9.77361 33.904 12.9833 37.1133C16.1926 40.3226 20.4601 42.0903 24.9992 42.0903C28.0792 42.0903 31.0966 41.2579 33.7246 39.6832C34.1873 39.4059 34.3376 38.8066 34.0607 38.3435C33.7833 37.8812 33.1837 37.7309 32.7209 38.0078C30.3959 39.4009 27.726 40.1372 24.9992 40.1372C20.9816 40.1372 17.205 38.5728 14.3642 35.7323C11.5238 32.8919 9.95939 29.115 9.95939 25.0973C9.95939 21.0801 11.5238 17.3032 14.3642 14.4623C16.3711 12.4558 18.4944 11.3042 21.4329 9.71075C24.1688 8.22722 27.5562 6.39006 31.9958 3.11132C32.7286 3.34593 33.4515 3.61753 34.1617 3.92729C29.1553 7.73321 25.4165 9.76149 22.3686 11.4144C19.6911 12.8663 17.5762 14.013 15.7455 15.8436C13.2736 18.3156 11.9121 21.6019 11.9121 25.0973C11.9121 28.5931 13.2736 31.8795 15.7455 34.3514C18.2174 36.8233 21.5038 38.1844 24.9992 38.1844C28.495 38.1844 31.7814 36.823 34.2533 34.3514C36.0836 32.5211 37.2303 30.4063 38.6825 27.7283C40.3332 24.6842 42.3584 20.9511 46.1555 15.9539C46.463 16.6676 46.7319 17.3943 46.9639 18.1298C43.6985 22.5556 41.8667 25.9339 40.3858 28.6641C39.534 30.235 38.7981 31.5919 37.9795 32.8294C37.6816 33.2791 37.8052 33.8853 38.2549 34.1828C38.4209 34.2923 38.6078 34.3449 38.7928 34.3449C39.1098 34.3449 39.4203 34.1908 39.6084 33.907C40.4743 32.5982 41.2289 31.2066 42.1028 29.5953C43.4044 27.1947 44.9837 24.2829 47.5941 20.5929C49.0372 27.8886 46.9387 35.7522 41.2964 41.3945C32.3101 50.3808 17.6883 50.3808 8.70244 41.3945C0.67746 33.3695 -0.346787 20.8676 6.26714 11.6673C6.58185 11.2294 6.48191 10.619 6.04398 10.3043C5.60605 9.98961 4.99608 10.0896 4.68099 10.5271C1.25958 15.2871 -0.376923 21.1442 0.0732111 27.0203C0.528305 32.9613 3.10246 38.5564 7.32114 42.7754C12.0434 47.4973 18.3216 50.0977 24.9992 50.0977C31.6772 50.0977 37.9555 47.4973 42.6777 42.7754C47.3995 38.0532 50 31.775 50 25.0973C50 18.4193 47.3995 12.1411 42.6773 7.41926ZM36.9652 26.7979C35.535 29.435 34.5016 31.3401 32.872 32.9697C30.7693 35.0728 27.9732 36.2309 24.9992 36.2313C22.0257 36.2313 19.2295 35.0732 17.1268 32.9697C15.0238 30.8671 13.8653 28.0709 13.8653 25.0973C13.8653 22.1234 15.0234 19.3276 17.1268 17.2246C18.7565 15.5945 20.6623 14.5611 23.2994 13.131C26.5625 11.3618 30.6003 9.17174 36.1133 4.89088C37.9742 5.92161 39.7217 7.22548 41.2964 8.80019C42.8741 10.3779 44.1738 12.13 45.1973 13.9943C40.9218 19.5019 38.7337 23.5364 36.9652 26.7979Z" fill="#64605B"/>
<path d="M8.0117 9.08654C8.23219 9.08654 8.45382 9.01253 8.63655 8.86032L8.63693 8.85994C9.05121 8.51471 9.1069 7.89902 8.76167 7.48474C8.41644 7.07046 7.80036 7.01477 7.38609 7.36C6.97181 7.70523 6.91574 8.32092 7.26097 8.7352C7.45437 8.96714 7.73208 9.08654 8.0117 9.08654Z" fill="#64605B"/>
<path d="M36.3239 37.3997C36.6035 37.3997 36.8813 37.2799 37.0747 37.0484L37.075 37.0476C37.4203 36.6333 37.3642 36.018 36.9499 35.6724C36.5353 35.3272 35.9196 35.3837 35.574 35.7979C35.2287 36.2122 35.2848 36.8279 35.6991 37.1735C35.8818 37.3257 36.1034 37.3997 36.3239 37.3997Z" fill="#64605B"/>
</g>
<defs>
<clipPath id="clip0_1_401">
<rect width="50" height="50" fill="white"/>
</clipPath>
</defs>
</svg>
