<svg width="65" height="54" viewBox="0 0 65 54" fill="none" xmlns="http://www.w3.org/2000/svg">
<g clip-path="url(#clip0_1_369)">
<path d="M62.2943 45.9932L59.9045 31.6565C59.3025 28.0423 56.8279 25.5974 53.7235 25.521C53.5722 24.7549 53.2965 24.0135 52.9033 23.3326C51.8018 21.4248 49.9005 20.1578 47.7651 19.8473C47.4547 17.7124 46.1871 15.8106 44.2799 14.7092C42.3721 13.6078 40.0919 13.4615 38.0874 14.2599C36.7509 12.5659 34.7023 11.5527 32.5 11.5527C30.2679 11.5527 28.195 12.5932 26.8595 14.3279C26.3661 14.3045 25.8811 14.5748 25.6544 15.0499C25.3524 15.6827 25.6212 16.4404 26.254 16.7424C26.4023 16.8129 26.5471 16.8922 26.685 16.977C26.9825 17.16 27.342 17.2126 27.6797 17.1223C28.017 17.0321 28.3021 16.8064 28.4678 16.4994C29.2696 15.0142 30.8149 14.0918 32.5 14.0918C34.1851 14.0918 35.7304 15.0142 36.5318 16.4989C36.6979 16.8064 36.983 17.0316 37.3207 17.1223C37.6575 17.2126 38.0175 17.16 38.315 16.977C39.7517 16.0918 41.5509 16.0655 43.0103 16.9081C44.4698 17.7506 45.3466 19.3222 45.2985 21.0088C45.2885 21.3579 45.4224 21.6956 45.6694 21.9426C45.9169 22.1895 46.2585 22.3234 46.6037 22.314C48.2928 22.2634 49.8618 23.1427 50.7044 24.6021C50.872 24.8922 51.0044 25.2002 51.1046 25.5176H13.8954C13.9956 25.2002 14.128 24.8922 14.2956 24.6021C15.1382 23.1427 16.7082 22.2629 18.3963 22.314C18.7474 22.3234 19.0836 22.1895 19.3306 21.9426C19.5776 21.6956 19.7115 21.3579 19.7015 21.0088C19.6971 20.8476 19.7015 20.6824 19.7144 20.5183C19.7695 19.8191 19.2473 19.2081 18.5485 19.1531C18.0224 19.1114 17.5483 19.3956 17.3207 19.8354C15.1511 20.1245 13.213 21.4 12.0967 23.3326C11.704 24.014 11.4278 24.7554 11.277 25.5215C8.17211 25.5974 5.69801 28.0428 5.09548 31.6565L2.70569 45.9932C1.14208 46.4673 0 47.9218 0 49.6387C0 51.7388 1.70841 53.4473 3.80859 53.4473H61.1914C63.2916 53.4473 65 51.7388 65 49.6387C65 47.9218 63.8579 46.4673 62.2943 45.9932ZM7.59983 32.074C7.90878 30.2208 9.09599 28.0566 11.4258 28.0566H53.5742C55.904 28.0566 57.0912 30.2208 57.4002 32.074L59.6928 45.8301H5.30724L7.59983 32.074ZM61.1914 50.9082H3.80859C3.10837 50.9082 2.53906 50.3389 2.53906 49.6387C2.53906 48.9384 3.10837 48.3691 3.80859 48.3691H61.186H61.1899H61.1929C61.8921 48.3701 62.4609 48.9389 62.4609 49.6387C62.4609 50.3389 61.8916 50.9082 61.1914 50.9082Z" fill="#64605B"/>
<path d="M30.9295 42.0081C31.3481 42.4272 31.906 42.6578 32.5001 42.6578C33.0942 42.6578 33.6521 42.4272 34.0711 42.0081L37.605 38.4743C39.2594 36.8194 39.2594 34.1271 37.605 32.4723C36.2239 31.0912 34.1202 30.8625 32.5001 31.7864C30.88 30.8625 28.7768 31.0916 27.3957 32.4723C25.7408 34.1271 25.7408 36.8194 27.3957 38.4748L30.9295 42.0081ZM29.1909 34.2675C29.5236 33.9352 29.96 33.7691 30.3969 33.7691C30.8333 33.7691 31.2702 33.9352 31.6025 34.2675C32.0984 34.7634 32.9023 34.7634 33.3977 34.2675C34.0627 33.6029 35.1443 33.6024 35.8093 34.2675C36.4743 34.9325 36.4743 36.0141 35.8093 36.6791L32.5001 39.9883L29.1909 36.6791C28.5264 36.0141 28.5264 34.9325 29.1909 34.2675Z" fill="#FBCE45"/>
<path d="M25.332 22.1221C26.0332 22.1221 26.6016 21.5533 26.6016 20.8521C26.6016 20.1508 26.0332 19.5825 25.332 19.5825C24.6308 19.5825 24.0625 20.1508 24.0625 20.8521V20.853C24.0625 21.5543 24.6308 22.1221 25.332 22.1221Z" fill="#64605B"/>
<path d="M29.8706 22.8198V22.8208C29.8706 23.522 30.4389 24.0898 31.1401 24.0898C31.8414 24.0898 32.4097 23.521 32.4097 22.8198C32.4097 22.1186 31.8414 21.5503 31.1401 21.5503C30.4389 21.5503 29.8706 22.1186 29.8706 22.8198Z" fill="#64605B"/>
<path d="M47.2271 43.2905H54.8432C55.5445 43.2905 56.1128 42.7222 56.1128 42.021C56.1128 41.3203 55.5445 40.7515 54.8432 40.7515H47.2271C46.5258 40.7515 45.9575 41.3203 45.9575 42.021C45.9575 42.7222 46.5258 43.2905 47.2271 43.2905Z" fill="#64605B"/>
<path d="M42.1494 43.2905C42.8501 43.2905 43.419 42.7222 43.419 42.021C43.419 41.3203 42.8501 40.7515 42.1494 40.7515H42.1479C41.4472 40.7515 40.8794 41.3203 40.8794 42.021C40.8794 42.7222 41.4482 43.2905 42.1494 43.2905Z" fill="#64605B"/>
<path d="M23.8706 11.8198V11.8208C23.8706 12.522 24.4389 13.0898 25.1401 13.0898C25.8414 13.0898 26.4097 12.521 26.4097 11.8198C26.4097 11.1186 25.8414 10.5503 25.1401 10.5503C24.4389 10.5503 23.8706 11.1186 23.8706 11.8198Z" fill="#64605B"/>
</g>
<path d="M33.1714 17.9946C33.1714 17.2934 32.6031 16.7251 31.9019 16.7251C31.2006 16.7251 30.6323 17.2934 30.6323 17.9946V17.9956C30.6323 18.6968 31.2006 19.2647 31.9019 19.2647C32.6031 19.2647 33.1714 18.6958 33.1714 17.9946Z" fill="#64605B"/>
<path d="M21.3559 17.0783C21.583 17.0783 21.8126 17.0178 22.0204 16.8898C22.6175 16.5223 22.8034 15.7403 22.436 15.1432C22.0685 14.5461 21.2864 14.3602 20.6898 14.7276L20.6889 14.7281C20.0918 15.0956 19.9058 15.8772 20.2733 16.4742C20.5133 16.864 20.9294 17.0783 21.3559 17.0783Z" fill="#64605B"/>
<defs>
<clipPath id="clip0_1_369">
<rect width="65" height="53.0833" fill="white"/>
</clipPath>
</defs>
</svg>
