<svg width="33" height="33" viewBox="0 0 33 33" fill="none" xmlns="http://www.w3.org/2000/svg">
<path d="M8.91602 25.6028V27.9231C8.91608 28.0427 8.96364 28.1575 9.04824 28.242C9.13283 28.3266 9.24755 28.3742 9.36719 28.3743H23.633C23.7526 28.3742 23.8673 28.3266 23.9519 28.242C24.0365 28.1575 24.0841 28.0427 24.0842 27.9231V25.6028C24.0842 25.4831 24.0366 25.3684 23.952 25.2838C23.8674 25.1991 23.7526 25.1516 23.633 25.1516H9.36719C9.24753 25.1516 9.13277 25.1991 9.04816 25.2838C8.96355 25.3684 8.91602 25.4831 8.91602 25.6028ZM9.81836 26.054H23.1818V27.4719H9.81836V26.054Z" fill="#64605B"/>
<path d="M11.6335 14.0459L9.99126 15.6858C9.9493 15.7277 9.91601 15.7774 9.89329 15.8322C9.87058 15.8869 9.85889 15.9456 9.85889 16.0049C9.85889 16.0641 9.87058 16.1228 9.89329 16.1776C9.91601 16.2323 9.9493 16.2821 9.99126 16.3239L16.1813 22.514C16.2232 22.5559 16.2729 22.5892 16.3276 22.6119C16.3823 22.6346 16.441 22.6462 16.5002 22.6462C16.5595 22.6462 16.6182 22.6346 16.6729 22.6119C16.7276 22.5892 16.7773 22.5559 16.8192 22.514L23.0092 16.3239C23.0512 16.2821 23.0845 16.2323 23.1072 16.1776C23.1299 16.1228 23.1416 16.0641 23.1416 16.0049C23.1416 15.9456 23.1299 15.8869 23.1072 15.8322C23.0845 15.7774 23.0512 15.7277 23.0092 15.6858L21.367 14.0459C21.2824 13.9614 21.1677 13.914 21.0482 13.914C20.9286 13.914 20.814 13.9614 20.7294 14.0459L18.1113 16.6637V5.67578C18.1112 5.55614 18.0637 5.44143 17.9791 5.35683C17.8945 5.27223 17.7798 5.22468 17.6601 5.22461H15.3398C15.2202 5.22468 15.1055 5.27223 15.0209 5.35683C14.9363 5.44143 14.8887 5.55614 14.8887 5.67578V16.6637L12.2719 14.0461C12.23 14.0042 12.1802 13.9709 12.1255 13.9482C12.0707 13.9255 12.012 13.9137 11.9528 13.9137C11.8935 13.9137 11.8348 13.9254 11.78 13.948C11.7252 13.9707 11.6754 14.004 11.6335 14.0459ZM15.0209 18.0727C15.084 18.1359 15.1645 18.1789 15.2521 18.1964C15.3397 18.2138 15.4305 18.2048 15.513 18.1706C15.5955 18.1364 15.6659 18.0784 15.7154 18.004C15.7649 17.9297 15.7912 17.8423 15.791 17.753V6.12695H17.209V17.753C17.2087 17.8423 17.235 17.9297 17.2845 18.004C17.334 18.0784 17.4045 18.1364 17.487 18.1706C17.5695 18.2048 17.6603 18.2138 17.7479 18.1964C17.8355 18.1789 17.916 18.1359 17.9791 18.0727L21.047 15.0047L22.0507 16.0068L16.5 21.557L10.9483 16.0053L11.9519 15.0031L15.0209 18.0727Z" fill="#64605B"/>
</svg>
