<svg width="60" height="60" viewBox="0 0 60 60" fill="none" xmlns="http://www.w3.org/2000/svg">
<g clip-path="url(#clip0_1_408)">
<path d="M39.2688 47.4879C40.5817 46.0675 41.8451 44.5399 42.9607 43.0449C48.4698 35.6612 51.6293 27.9245 51.6293 21.8179C51.6293 16.0959 49.2499 10.4457 45.1012 6.31622C41.0065 2.24075 35.6717 0 30.0783 0C30.016 0 29.9529 0 29.8906 0C25.9758 0 21.9429 1.19568 18.5248 3.37097C17.9791 3.71841 17.818 4.4426 18.1654 4.98871C18.5129 5.53482 19.2375 5.6955 19.7832 5.34805C22.83 3.40897 26.4157 2.34375 29.9007 2.34375H30.0673C35.0468 2.34375 39.7957 4.34235 43.4477 7.97745C47.1579 11.6702 49.2856 16.7148 49.2856 21.8179C49.2856 27.4297 46.2959 34.6559 41.0825 41.6432C39.4904 43.7769 37.9491 45.5521 36.5378 46.9839C36.465 47.0416 36.3977 47.108 36.3396 47.1826C33.3499 50.1741 30.97 51.6023 29.9748 51.6023C28.9801 51.6023 26.5997 50.1741 23.6105 47.1831C23.5524 47.108 23.4851 47.0416 23.4119 46.9844C22.0006 45.5521 20.4597 43.7769 18.8676 41.6432C13.6542 34.6559 10.6641 27.4297 10.6641 21.8179C10.6641 18.2391 11.6679 14.7231 13.5672 11.6501C13.9073 11.0994 13.737 10.3775 13.1863 10.0369C12.6361 9.69681 11.9138 9.8671 11.5736 10.4178C9.44504 13.8615 8.32031 17.8033 8.32031 21.8175C8.32031 27.924 11.4798 35.6612 16.989 43.0444C18.1046 44.5399 19.368 46.0675 20.6808 47.4879C18.0176 48.8242 16.5244 50.6978 16.5244 52.7742C16.5244 54.8611 18.0336 56.7549 20.7742 58.1058C23.2516 59.3275 26.5192 60 29.9753 60C33.4309 60 36.6985 59.3275 39.1759 58.1058C41.916 56.7549 43.4258 54.8611 43.4258 52.7742C43.4258 50.6978 41.9325 48.8242 39.2688 47.4879ZM29.9748 57.6562C23.4293 57.6562 18.8681 55.0832 18.8681 52.7742C18.8681 51.5195 20.2089 50.2089 22.4139 49.2691C25.1926 51.9699 28.0037 53.9461 29.9748 53.9461C31.946 53.9461 34.7571 51.9699 37.5357 49.2691C39.7408 50.2089 41.0815 51.5195 41.0815 52.7742C41.0815 55.0832 36.5204 57.6562 29.9748 57.6562Z" fill="#64605B"/>
<path d="M43.4102 30.0449C43.9828 30.347 44.6919 30.1273 44.9936 29.5547C46.268 27.1354 46.9418 24.4044 46.9418 21.6555C46.9418 12.3002 39.3306 4.68848 29.9748 4.68848C20.619 4.68848 13.0078 12.3002 13.0078 21.6555C13.0078 31.0113 20.619 38.6225 29.9748 38.6225C32.7242 38.6225 35.4552 37.9487 37.874 36.6743C38.4462 36.3726 38.6659 35.6635 38.3643 35.0909C38.0626 34.5182 37.3535 34.2994 36.7809 34.6006C34.698 35.6983 32.3447 36.2787 29.9748 36.2787C21.9113 36.2787 15.3516 29.719 15.3516 21.6555C15.3516 13.5924 21.9113 7.03223 29.9748 7.03223C38.0383 7.03223 44.5981 13.5924 44.5981 21.6555C44.5981 24.0249 44.0176 26.3782 42.9199 28.462C42.6183 29.0346 42.838 29.7433 43.4102 30.0449Z" fill="#64605B"/>
<path d="M14.7364 8.22201C14.9557 8.40466 15.2216 8.49393 15.4862 8.49393C15.8218 8.49393 16.155 8.35019 16.3871 8.07187L16.3876 8.07141C16.8018 7.57428 16.7345 6.83545 16.2374 6.42118C15.7398 6.0069 15.0005 6.07419 14.5863 6.57178C14.172 7.06891 14.2393 7.80774 14.7364 8.22201Z" fill="#64605B"/>
<path d="M40.3152 31.9953L40.3148 31.9958C39.857 32.4535 39.8575 33.1951 40.3152 33.6529C40.5437 33.8818 40.8435 33.9962 41.1438 33.9962C41.4436 33.9962 41.7439 33.8818 41.9728 33.6529C42.4301 33.1951 42.4301 32.4531 41.9728 31.9953C41.515 31.538 40.773 31.538 40.3152 31.9953Z" fill="#64605B"/>
<path d="M27.7733 32.5653C28.4838 32.5296 29.218 32.4934 29.9747 32.4934C30.7314 32.4934 31.4656 32.5301 32.1761 32.5653C32.8224 32.5974 33.4441 32.6285 34.0332 32.6285C35.5365 32.6285 36.826 32.4266 37.7695 31.5289C38.561 30.7764 38.9455 29.6704 38.9455 28.1488C38.9455 23.2027 34.9213 19.1785 29.9747 19.1785C25.0281 19.1785 21.0039 23.2027 21.0039 28.1488C21.0039 29.6704 21.3884 30.7764 22.1799 31.5289C23.4928 32.7782 25.4763 32.6797 27.7733 32.5653ZM29.9747 21.5222C33.629 21.5222 36.6017 24.4949 36.6017 28.1488C36.6017 28.9824 36.4511 29.5482 36.1541 29.8311C35.569 30.3873 33.9778 30.3081 32.2924 30.2243C31.5535 30.1877 30.7895 30.1492 29.9747 30.1492C29.1599 30.1492 28.3959 30.1872 27.657 30.2243C25.9716 30.3081 24.3804 30.3873 23.7953 29.8311C23.4983 29.5482 23.3477 28.9824 23.3477 28.1488C23.3477 24.4949 26.3208 21.5222 29.9747 21.5222Z" fill="#FBCE45"/>
<path d="M33.5592 14.5103C33.5592 12.4 31.9511 10.6833 29.9749 10.6833C27.9988 10.6833 26.3911 12.4 26.3911 14.5103C26.3911 16.6205 27.9988 18.3372 29.9749 18.3372C31.9511 18.3372 33.5592 16.6205 33.5592 14.5103ZM28.7349 14.5103C28.7349 13.7064 29.3029 13.0271 29.9749 13.0271C30.6469 13.0271 31.215 13.7064 31.215 14.5103C31.215 15.3141 30.6469 15.9934 29.9749 15.9934C29.3029 15.9934 28.7349 15.3145 28.7349 14.5103Z" fill="#FBCE45"/>
<path d="M24.3227 15.7448C23.2676 13.9174 21.0168 13.2345 19.3056 14.2228C17.5941 15.2106 17.0598 17.5017 18.115 19.3287C18.6158 20.1961 19.3999 20.8361 20.3237 21.1318C20.6908 21.2494 21.0634 21.3076 21.4301 21.3076C22.0261 21.3076 22.6079 21.1538 23.1325 20.8512C24.8441 19.8629 25.3779 17.5722 24.3227 15.7448ZM21.9607 18.8215C21.6924 18.9762 21.3642 19.0041 21.0378 18.8993C20.6707 18.7816 20.3535 18.518 20.1447 18.1568C19.7359 17.4486 19.8852 16.594 20.4771 16.252C21.0699 15.9101 21.8842 16.2085 22.293 16.9167C22.7018 17.6249 22.553 18.4795 21.9607 18.8215Z" fill="#FBCE45"/>
<path d="M40.6444 14.2224C39.7966 13.733 38.7991 13.6337 37.8351 13.9418C36.9118 14.2375 36.1272 14.8775 35.6268 15.7449C34.5717 17.5723 35.1054 19.863 36.817 20.8513C37.3494 21.1584 37.933 21.304 38.5176 21.304C39.8122 21.304 41.1076 20.5881 41.8346 19.3287C42.8897 17.5014 42.3555 15.2107 40.6444 14.2224ZM39.8048 18.1569C39.3956 18.865 38.5812 19.1635 37.9889 18.8215C37.3965 18.4796 37.2478 17.625 37.6566 16.9168C37.8653 16.5556 38.1821 16.2919 38.5492 16.1743C38.6797 16.1326 38.8097 16.112 38.9365 16.112C39.1278 16.112 39.3109 16.1592 39.4725 16.2526C40.0644 16.5945 40.2136 17.4487 39.8048 18.1569Z" fill="#FBCE45"/>
</g>
<defs>
<clipPath id="clip0_1_408">
<rect width="60" height="60" fill="white"/>
</clipPath>
</defs>
</svg>
