<svg width="38" height="60" viewBox="0 0 38 60" fill="none" xmlns="http://www.w3.org/2000/svg">
<path d="M32.7225 0H5.03016C2.25656 0 0 2.25656 0 5.03016V54.9698C0 57.7434 2.25656 60 5.03016 60H32.7226C35.4962 60 37.7528 57.7434 37.7528 54.9698V5.03016C37.7527 2.25656 35.4962 0 32.7225 0ZM35.4089 52.1224H10.2117C9.56461 52.1224 9.03984 52.6472 9.03984 53.2943C9.03984 53.9415 9.56461 54.4662 10.2117 54.4662H35.409V54.9698C35.409 56.4512 34.204 57.6562 32.7226 57.6562H5.03016C3.54879 57.6562 2.34375 56.4512 2.34375 54.9698V48.9323H35.4089V52.1224ZM35.4089 46.5886H2.34375V12.0582H35.4089V46.5886ZM35.4091 9.71461H2.34375V5.03016C2.34375 3.54879 3.54879 2.34375 5.03016 2.34375H32.7226C34.204 2.34375 35.409 3.54879 35.409 5.03016V9.71461H35.4091Z" fill="#64605B"/>
<path d="M7.00874 53.0646C6.99351 52.9909 6.97124 52.9171 6.94194 52.8456C6.91265 52.7752 6.8762 52.7072 6.83413 52.6439C6.79077 52.5795 6.74155 52.5197 6.68765 52.4658C6.41577 52.1939 6.0103 52.0684 5.6305 52.1459C5.5555 52.1599 5.48167 52.1834 5.41136 52.2127C5.33999 52.242 5.27202 52.2771 5.20874 52.3193C5.14417 52.3627 5.0844 52.4119 5.0305 52.4658C4.97659 52.5197 4.92737 52.5795 4.88519 52.6439C4.84311 52.7072 4.80667 52.7752 4.77737 52.8456C4.74808 52.917 4.72593 52.9908 4.71069 53.0646C4.69546 53.1408 4.68726 53.2183 4.68726 53.2943C4.68726 53.6026 4.81265 53.905 5.03061 54.1228C5.08452 54.1767 5.14429 54.2259 5.20886 54.2681C5.27214 54.3103 5.34011 54.3467 5.41147 54.376C5.4819 54.4052 5.55561 54.4275 5.63061 54.4427C5.70561 54.458 5.78296 54.4661 5.85913 54.4661C5.93519 54.4661 6.01265 54.458 6.08882 54.4427C6.16265 54.4275 6.23647 54.4052 6.30796 54.376C6.37827 54.3467 6.44624 54.3103 6.50952 54.2681C6.57397 54.2259 6.63386 54.1767 6.68776 54.1228C6.74167 54.0689 6.79089 54.0092 6.83425 53.9447C6.87632 53.8814 6.91276 53.8134 6.94206 53.742C6.97136 53.6717 6.99351 53.5978 7.00874 53.5228C7.02397 53.4478 7.03101 53.3705 7.03101 53.2943C7.03101 53.2183 7.02386 53.1408 7.00874 53.0646Z" fill="#64605B"/>
<path d="M30.6327 26.6929C30.6327 24.6913 29.1331 23.0345 27.1987 22.784C27.2375 22.5603 27.2598 22.3314 27.2636 22.0986C27.2636 22.0984 27.2636 22.0984 27.2636 22.0984C27.2823 20.9166 26.8323 19.7979 25.9964 18.9486C25.1441 18.0824 24.0051 17.6055 22.7894 17.6055C21.1078 17.6055 19.6408 18.5383 18.8764 19.9131C18.1121 18.5382 16.6449 17.6055 14.9632 17.6055C12.4961 17.6055 10.4889 19.6127 10.4889 22.0798C10.4889 22.3173 10.5079 22.5503 10.5437 22.7779C9.70749 22.8794 8.92503 23.2555 8.30687 23.8626C7.55253 24.6034 7.11987 25.635 7.11987 26.6929C7.11987 28.4758 8.3098 29.9853 9.93694 30.4711C8.71515 31.7589 7.98753 33.4911 7.98753 35.3354C7.98753 39.2277 11.1543 42.3943 15.0466 42.3943C16.4109 42.3943 17.7407 41.9976 18.8764 41.2636C20.0119 41.9977 21.3419 42.3943 22.7062 42.3943C26.5985 42.3943 29.7652 39.2277 29.7652 35.3354C29.7652 33.4909 29.0375 31.7588 27.8158 30.4711C29.4427 29.9854 30.6327 28.4758 30.6327 26.6929ZM22.7893 19.9492C23.3719 19.9492 23.9176 20.1776 24.3258 20.5925C24.7178 20.9907 24.9289 21.5123 24.92 22.0609C24.9014 23.2252 23.936 24.1895 22.7682 24.2106C22.4758 24.2152 22.1898 24.1548 21.9253 24.0391C21.8817 24.0183 21.8382 23.9978 21.7941 23.9779C21.6173 23.8848 21.4521 23.7652 21.3045 23.6201C20.888 23.2111 20.6587 22.6641 20.6587 22.0797C20.6588 20.9051 21.6146 19.9492 22.7893 19.9492ZM14.9632 19.9492C16.138 19.9492 17.0939 20.905 17.0939 22.0798C17.0939 23.2546 16.1382 24.2105 14.9632 24.2105C13.7885 24.2105 12.8326 23.2547 12.8326 22.0798C12.8326 20.9051 13.7884 19.9492 14.9632 19.9492ZM9.46362 26.6929C9.46362 26.2536 9.63612 25.8422 9.94913 25.5347C10.2396 25.2494 10.6169 25.0933 11.0141 25.0933C11.0233 25.0933 11.0325 25.0934 11.0417 25.0935C11.4067 25.1001 11.7448 25.231 12.0174 25.4432C12.0563 25.4773 12.0953 25.5113 12.1354 25.5441C12.4511 25.8404 12.6539 26.2559 12.6621 26.7136C12.6621 26.7138 12.6621 26.7137 12.6621 26.7137C12.665 26.8703 12.6429 27.0239 12.599 27.1708C12.5301 27.305 12.4649 27.4414 12.4044 27.5806C12.3508 27.6603 12.2897 27.7362 12.2206 27.8068C11.9132 28.1196 11.5021 28.292 11.0629 28.292C10.1809 28.292 9.46362 27.5747 9.46362 26.6929ZM22.7062 40.0506C21.5822 40.0506 20.4931 39.6474 19.6394 38.9151C19.4199 38.7269 19.1481 38.6328 18.8764 38.6328C18.6047 38.6328 18.3328 38.7269 18.1133 38.9151C17.2596 39.6474 16.1705 40.0506 15.0466 40.0506C12.4465 40.0506 10.3313 37.9354 10.3313 35.3355C10.3313 33.3646 11.5739 31.5849 13.4235 30.9067C13.8444 30.7525 14.1403 30.3715 14.1859 29.9255C14.2315 29.4782 14.3384 29.0515 14.4972 28.653C14.5961 28.4809 14.6808 28.3021 14.7516 28.1179C15.5582 26.6617 17.1076 25.6963 18.8765 25.6963C19.5541 25.6963 20.1995 25.8382 20.7835 26.0948C20.8531 26.1297 20.9236 26.1627 20.9949 26.1938C21.8714 26.6322 22.5924 27.3365 23.0506 28.2086C23.0979 28.3218 23.1505 28.4322 23.2078 28.5398C23.3928 28.9705 23.517 29.4355 23.567 29.9256C23.6126 30.3716 23.9085 30.7526 24.3294 30.9068C26.179 31.585 27.4217 33.3647 27.4217 35.3356C27.4214 37.9354 25.306 40.0506 22.7062 40.0506ZM26.69 28.292C26.1067 28.292 25.5971 27.9773 25.3177 27.5097C25.2762 27.4171 25.2328 27.3256 25.1876 27.2352C25.1262 27.0655 25.0909 26.8834 25.0909 26.6929C25.0909 25.8112 25.8082 25.0938 26.6901 25.0938C27.5718 25.0938 28.2891 25.8111 28.2891 26.6929C28.2891 27.5747 27.5716 28.292 26.69 28.292Z" fill="#FBCE45"/>
<path d="M32.9249 5.79955C32.9094 5.72573 32.8871 5.6519 32.8578 5.58053C32.8285 5.5101 32.7922 5.44213 32.75 5.37885C32.708 5.3144 32.6586 5.25463 32.6047 5.20084C32.3317 4.9278 31.9275 4.80358 31.5466 4.87975C31.4715 4.89498 31.3978 4.91725 31.3275 4.94772C31.2571 4.97702 31.1891 5.01217 31.1248 5.05553C31.0615 5.09772 31.0005 5.14694 30.9466 5.20084C30.8927 5.25475 30.8435 5.31451 30.8013 5.37885C30.7591 5.44213 30.7228 5.5101 30.6935 5.58053C30.6642 5.6519 30.6419 5.72573 30.6267 5.79967C30.6115 5.87573 30.6033 5.95319 30.6033 6.02936C30.6033 6.33756 30.7287 6.63991 30.9467 6.85776C31.0007 6.91166 31.0615 6.96088 31.1249 7.00307C31.1893 7.04526 31.2573 7.08159 31.3276 7.11088C31.3979 7.14018 31.4716 7.16362 31.5467 7.17768C31.6228 7.19291 31.6991 7.20112 31.7764 7.20112C32.0846 7.20112 32.387 7.07573 32.6048 6.85764C32.8228 6.63979 32.9483 6.33744 32.9483 6.02924C32.9483 5.95307 32.9401 5.87561 32.9249 5.79955Z" fill="#64605B"/>
<path d="M27.4235 4.85742H22.1577C21.5106 4.85742 20.9858 5.38219 20.9858 6.0293C20.9858 6.67641 21.5106 7.20117 22.1577 7.20117H27.4235C28.0708 7.20117 28.5954 6.67641 28.5954 6.0293C28.5954 5.38219 28.0708 4.85742 27.4235 4.85742Z" fill="#64605B"/>
</svg>
